<svg xmlns="http://www.w3.org/2000/svg" xmlns:xlink="http://www.w3.org/1999/xlink" width="1920" zoomAndPan="magnify" viewBox="0 0 1440 809.999993" height="1080" preserveAspectRatio="xMidYMid meet" version="1.0"><defs><clipPath id="57b0f08ab2"><path d="M 278.296875 530 L 327 530 L 327 591 L 278.296875 591 Z M 278.296875 530 " clip-rule="nonzero"/></clipPath><clipPath id="4c38bc3c23"><path d="M 278.296875 466 L 519 466 L 519 531 L 278.296875 531 Z M 278.296875 466 " clip-rule="nonzero"/></clipPath><clipPath id="7893d9ced3"><path d="M 1113 530 L 1161.796875 530 L 1161.796875 591 L 1113 591 Z M 1113 530 " clip-rule="nonzero"/></clipPath><clipPath id="a82d3cb651"><path d="M 921 466 L 1161.796875 466 L 1161.796875 531 L 921 531 Z M 921 466 " clip-rule="nonzero"/></clipPath><clipPath id="e4f9d24d51"><path d="M 289 765 L 1146 765 L 1146 809.726562 L 289 809.726562 Z M 289 765 " clip-rule="nonzero"/></clipPath></defs><rect x="-144" width="1728" fill="#ffffff" y="-80.999999" height="971.999992" fill-opacity="1"/><rect x="-144" width="1728" fill="#ffffff" y="-80.999999" height="971.999992" fill-opacity="1"/><path fill="#3775a4" d="M 518.117188 498.183594 L 921.976562 498.183594 L 921.976562 765.96875 L 518.117188 765.96875 Z M 518.117188 498.183594 " fill-opacity="1" fill-rule="nonzero"/><path fill="#c7463b" d="M 518.117188 401.855469 L 921.976562 401.855469 L 921.976562 498.21875 L 518.117188 498.21875 Z M 518.117188 401.855469 " fill-opacity="1" fill-rule="nonzero"/><path fill="#e0e0e0" d="M 493.804688 364.09375 L 946.289062 364.09375 L 946.289062 401.699219 L 493.804688 401.699219 Z M 493.804688 364.09375 " fill-opacity="1" fill-rule="nonzero"/><path fill="#b5b5b5" d="M 921.976562 546.960938 L 831.550781 546.960938 L 831.550781 498.183594 L 810.558594 498.183594 L 810.558594 546.960938 L 730.628906 546.960938 L 730.628906 498.183594 L 709.640625 498.183594 L 709.640625 546.960938 L 629.53125 546.960938 L 629.53125 498.183594 L 608.542969 498.183594 L 608.542969 546.960938 L 518.117188 546.960938 C 517.429688 546.960938 516.746094 547.027344 516.070312 547.164062 C 515.394531 547.296875 514.738281 547.496094 514.101562 547.757812 C 513.464844 548.023438 512.859375 548.347656 512.289062 548.730469 C 511.714844 549.113281 511.183594 549.546875 510.695312 550.035156 C 510.210938 550.519531 509.773438 551.050781 509.390625 551.625 C 509.007812 552.195312 508.6875 552.800781 508.421875 553.4375 C 508.160156 554.074219 507.960938 554.730469 507.824219 555.40625 C 507.691406 556.078125 507.625 556.761719 507.625 557.449219 C 507.625 558.140625 507.691406 558.820312 507.824219 559.496094 C 507.960938 560.171875 508.160156 560.828125 508.421875 561.464844 C 508.6875 562.101562 509.007812 562.707031 509.390625 563.277344 C 509.773438 563.851562 510.210938 564.382812 510.695312 564.867188 C 511.183594 565.355469 511.714844 565.789062 512.289062 566.171875 C 512.859375 566.554688 513.464844 566.878906 514.101562 567.140625 C 514.738281 567.40625 515.394531 567.605469 516.070312 567.738281 C 516.746094 567.875 517.429688 567.941406 518.117188 567.941406 L 608.542969 567.941406 L 608.542969 765.84375 L 629.53125 765.84375 L 629.53125 567.941406 L 709.640625 567.941406 L 709.640625 765.84375 L 730.628906 765.84375 L 730.628906 567.941406 L 810.558594 567.941406 L 810.558594 765.84375 L 831.550781 765.84375 L 831.550781 567.941406 L 921.976562 567.941406 C 922.664062 567.941406 923.347656 567.875 924.023438 567.738281 C 924.699219 567.605469 925.355469 567.40625 925.992188 567.140625 C 926.628906 566.878906 927.234375 566.554688 927.804688 566.171875 C 928.378906 565.789062 928.910156 565.355469 929.394531 564.867188 C 929.882812 564.382812 930.316406 563.851562 930.699219 563.277344 C 931.082031 562.707031 931.40625 562.101562 931.671875 561.464844 C 931.933594 560.828125 932.132812 560.171875 932.269531 559.496094 C 932.402344 558.820312 932.46875 558.140625 932.46875 557.449219 C 932.46875 556.761719 932.402344 556.078125 932.269531 555.40625 C 932.132812 554.730469 931.933594 554.074219 931.671875 553.4375 C 931.40625 552.800781 931.085938 552.195312 930.699219 551.625 C 930.316406 551.050781 929.882812 550.519531 929.394531 550.035156 C 928.910156 549.546875 928.378906 549.113281 927.804688 548.730469 C 927.234375 548.347656 926.628906 548.023438 925.992188 547.761719 C 925.355469 547.496094 924.699219 547.296875 924.023438 547.164062 C 923.347656 547.027344 922.664062 546.960938 921.976562 546.960938 Z M 921.976562 546.960938 " fill-opacity="1" fill-rule="nonzero"/><path fill="#cecece" d="M 588.78125 310.945312 L 626.035156 310.945312 L 626.035156 364.09375 L 588.78125 364.09375 Z M 588.78125 310.945312 " fill-opacity="1" fill-rule="nonzero"/><path fill="#cecece" d="M 821.054688 310.945312 L 858.308594 310.945312 L 858.308594 364.09375 L 821.054688 364.09375 Z M 821.054688 310.945312 " fill-opacity="1" fill-rule="nonzero"/><path fill="#c7463b" d="M 375.21875 566.714844 C 375.21875 567.496094 375.257812 568.273438 375.335938 569.046875 C 375.410156 569.820312 375.523438 570.589844 375.675781 571.355469 C 375.828125 572.117188 376.019531 572.875 376.242188 573.617188 C 376.46875 574.363281 376.730469 575.097656 377.03125 575.816406 C 377.328125 576.535156 377.660156 577.238281 378.027344 577.925781 C 378.394531 578.613281 378.796875 579.277344 379.230469 579.925781 C 379.660156 580.574219 380.125 581.199219 380.621094 581.800781 C 381.113281 582.402344 381.636719 582.980469 382.1875 583.527344 C 382.738281 584.078125 383.3125 584.601562 383.917969 585.097656 C 384.519531 585.589844 385.144531 586.054688 385.792969 586.484375 C 386.4375 586.917969 387.105469 587.320312 387.792969 587.6875 C 388.480469 588.050781 389.183594 588.386719 389.902344 588.683594 C 390.625 588.980469 391.355469 589.242188 392.101562 589.46875 C 392.847656 589.695312 393.601562 589.882812 394.367188 590.035156 C 395.128906 590.1875 395.898438 590.300781 396.675781 590.378906 C 397.449219 590.453125 398.226562 590.492188 399.007812 590.492188 C 399.785156 590.492188 400.5625 590.453125 401.339844 590.378906 C 402.113281 590.300781 402.882812 590.1875 403.648438 590.035156 C 404.410156 589.882812 405.167969 589.695312 405.910156 589.46875 C 406.65625 589.242188 407.390625 588.980469 408.109375 588.683594 C 408.828125 588.386719 409.53125 588.050781 410.21875 587.6875 C 410.90625 587.320312 411.574219 586.917969 412.222656 586.484375 C 412.871094 586.054688 413.496094 585.589844 414.097656 585.097656 C 414.699219 584.601562 415.277344 584.078125 415.828125 583.527344 C 416.378906 582.980469 416.902344 582.402344 417.394531 581.800781 C 417.890625 581.199219 418.351562 580.574219 418.785156 579.925781 C 419.21875 579.277344 419.617188 578.613281 419.984375 577.925781 C 420.351562 577.238281 420.683594 576.535156 420.984375 575.816406 C 421.28125 575.097656 421.542969 574.363281 421.769531 573.617188 C 421.996094 572.875 422.183594 572.117188 422.335938 571.355469 C 422.488281 570.589844 422.601562 569.820312 422.679688 569.046875 C 422.757812 568.273438 422.792969 567.496094 422.792969 566.714844 C 422.792969 567.496094 422.832031 568.273438 422.910156 569.046875 C 422.984375 569.820312 423.097656 570.589844 423.25 571.355469 C 423.402344 572.117188 423.59375 572.875 423.820312 573.617188 C 424.042969 574.363281 424.308594 575.097656 424.605469 575.816406 C 424.902344 576.535156 425.234375 577.238281 425.601562 577.925781 C 425.96875 578.613281 426.371094 579.277344 426.804688 579.925781 C 427.234375 580.574219 427.699219 581.199219 428.195312 581.800781 C 428.6875 582.402344 429.210938 582.980469 429.761719 583.527344 C 430.3125 584.078125 430.886719 584.601562 431.492188 585.097656 C 432.09375 585.589844 432.71875 586.054688 433.367188 586.484375 C 434.011719 586.917969 434.679688 587.320312 435.367188 587.6875 C 436.054688 588.050781 436.757812 588.386719 437.476562 588.683594 C 438.199219 588.980469 438.929688 589.242188 439.675781 589.46875 C 440.421875 589.695312 441.175781 589.882812 441.941406 590.035156 C 442.703125 590.1875 443.472656 590.300781 444.25 590.378906 C 445.023438 590.453125 445.800781 590.492188 446.582031 590.492188 L 446.757812 590.492188 C 447.535156 590.492188 448.3125 590.453125 449.085938 590.378906 C 449.863281 590.300781 450.632812 590.1875 451.398438 590.035156 C 452.160156 589.882812 452.914062 589.695312 453.660156 589.46875 C 454.40625 589.242188 455.140625 588.980469 455.859375 588.683594 C 456.578125 588.386719 457.28125 588.054688 457.96875 587.6875 C 458.65625 587.320312 459.324219 586.917969 459.972656 586.484375 C 460.621094 586.054688 461.246094 585.589844 461.847656 585.097656 C 462.449219 584.601562 463.027344 584.078125 463.578125 583.527344 C 464.128906 582.980469 464.648438 582.402344 465.144531 581.800781 C 465.636719 581.199219 466.101562 580.574219 466.535156 579.925781 C 466.96875 579.277344 467.367188 578.613281 467.734375 577.925781 C 468.101562 577.238281 468.433594 576.535156 468.734375 575.816406 C 469.03125 575.097656 469.292969 574.363281 469.519531 573.617188 C 469.746094 572.875 469.933594 572.117188 470.085938 571.355469 C 470.238281 570.589844 470.351562 569.820312 470.429688 569.046875 C 470.503906 568.273438 470.542969 567.496094 470.542969 566.714844 C 470.542969 567.496094 470.582031 568.273438 470.65625 569.046875 C 470.734375 569.820312 470.847656 570.589844 471 571.355469 C 471.152344 572.117188 471.339844 572.875 471.566406 573.617188 C 471.792969 574.363281 472.054688 575.097656 472.355469 575.816406 C 472.652344 576.535156 472.984375 577.238281 473.351562 577.925781 C 473.71875 578.613281 474.121094 579.277344 474.550781 579.925781 C 474.984375 580.574219 475.449219 581.199219 475.941406 581.800781 C 476.4375 582.402344 476.960938 582.980469 477.511719 583.527344 C 478.0625 584.078125 478.636719 584.601562 479.238281 585.097656 C 479.84375 585.589844 480.46875 586.054688 481.113281 586.484375 C 481.761719 586.917969 482.429688 587.320312 483.117188 587.6875 C 483.804688 588.050781 484.507812 588.386719 485.226562 588.683594 C 485.949219 588.980469 486.679688 589.242188 487.425781 589.46875 C 488.171875 589.695312 488.925781 589.882812 489.691406 590.035156 C 490.453125 590.1875 491.222656 590.300781 492 590.378906 C 492.773438 590.453125 493.550781 590.492188 494.332031 590.492188 C 495.109375 590.492188 495.886719 590.453125 496.664062 590.378906 C 497.4375 590.300781 498.207031 590.1875 498.972656 590.035156 C 499.734375 589.882812 500.488281 589.695312 501.234375 589.46875 C 501.980469 589.242188 502.714844 588.980469 503.433594 588.683594 C 504.152344 588.386719 504.855469 588.050781 505.542969 587.6875 C 506.230469 587.320312 506.898438 586.917969 507.546875 586.484375 C 508.195312 586.054688 508.820312 585.589844 509.421875 585.097656 C 510.023438 584.601562 510.601562 584.078125 511.152344 583.527344 C 511.703125 582.980469 512.222656 582.402344 512.71875 581.800781 C 513.210938 581.199219 513.675781 580.574219 514.109375 579.925781 C 514.542969 579.277344 514.941406 578.613281 515.308594 577.925781 C 515.675781 577.238281 516.007812 576.535156 516.308594 575.816406 C 516.605469 575.097656 516.867188 574.363281 517.09375 573.617188 C 517.320312 572.875 517.507812 572.117188 517.660156 571.355469 C 517.8125 570.589844 517.925781 569.820312 518.003906 569.046875 C 518.078125 568.273438 518.117188 567.496094 518.117188 566.714844 L 518.117188 765.84375 L 311.902344 765.84375 L 311.902344 588.570312 C 312.960938 588.105469 313.980469 587.570312 314.960938 586.960938 C 315.9375 586.347656 316.871094 585.671875 317.75 584.925781 C 318.632812 584.183594 319.457031 583.378906 320.222656 582.515625 C 320.988281 581.648438 321.6875 580.734375 322.320312 579.769531 C 322.953125 578.804688 323.511719 577.800781 324 576.753906 C 324.488281 575.710938 324.898438 574.632812 325.230469 573.527344 C 325.5625 572.425781 325.816406 571.300781 325.984375 570.160156 C 326.15625 569.019531 326.242188 567.871094 326.246094 566.714844 C 326.308594 567.457031 326.40625 568.191406 326.539062 568.921875 C 326.671875 569.648438 326.835938 570.371094 327.035156 571.085938 C 327.234375 571.800781 327.464844 572.503906 327.726562 573.199219 C 327.992188 573.890625 328.289062 574.570312 328.617188 575.238281 C 328.941406 575.902344 329.300781 576.550781 329.6875 577.183594 C 330.074219 577.816406 330.492188 578.429688 330.9375 579.023438 C 331.378906 579.617188 331.851562 580.1875 332.351562 580.738281 C 332.847656 581.289062 333.371094 581.816406 333.917969 582.316406 C 334.460938 582.816406 335.03125 583.292969 335.621094 583.742188 C 336.214844 584.191406 336.824219 584.609375 337.453125 585.003906 C 338.082031 585.394531 338.730469 585.757812 339.394531 586.089844 C 340.058594 586.421875 340.734375 586.722656 341.425781 586.992188 C 342.117188 587.261719 342.820312 587.496094 343.535156 587.699219 C 344.246094 587.90625 344.96875 588.074219 345.699219 588.210938 C 346.425781 588.347656 347.160156 588.453125 347.898438 588.519531 C 348.636719 588.589844 349.378906 588.625 350.121094 588.625 C 350.863281 588.625 351.601562 588.589844 352.34375 588.519531 C 353.082031 588.453125 353.816406 588.347656 354.542969 588.210938 C 355.273438 588.074219 355.996094 587.90625 356.707031 587.699219 C 357.421875 587.496094 358.125 587.261719 358.816406 586.992188 C 359.507812 586.722656 360.183594 586.421875 360.847656 586.089844 C 361.511719 585.757812 362.160156 585.394531 362.789062 585.003906 C 363.417969 584.609375 364.027344 584.191406 364.617188 583.742188 C 365.210938 583.292969 365.777344 582.816406 366.324219 582.316406 C 366.871094 581.816406 367.394531 581.289062 367.890625 580.738281 C 368.390625 580.1875 368.859375 579.617188 369.304688 579.023438 C 369.75 578.429688 370.167969 577.816406 370.554688 577.183594 C 370.941406 576.550781 371.296875 575.902344 371.625 575.238281 C 371.953125 574.570312 372.25 573.890625 372.511719 573.199219 C 372.777344 572.503906 373.007812 571.800781 373.207031 571.085938 C 373.40625 570.371094 373.570312 569.648438 373.703125 568.921875 C 373.835938 568.191406 373.933594 567.457031 373.996094 566.714844 Z M 375.21875 566.714844 " fill-opacity="1" fill-rule="nonzero"/><path fill="#3775a4" d="M 494.332031 590.492188 C 493.550781 590.492188 492.773438 590.453125 492 590.378906 C 491.222656 590.300781 490.453125 590.1875 489.691406 590.035156 C 488.925781 589.882812 488.171875 589.695312 487.425781 589.46875 C 486.679688 589.242188 485.949219 588.980469 485.226562 588.683594 C 484.507812 588.386719 483.804688 588.050781 483.117188 587.6875 C 482.429688 587.320312 481.761719 586.917969 481.113281 586.484375 C 480.46875 586.054688 479.84375 585.589844 479.238281 585.097656 C 478.636719 584.601562 478.0625 584.078125 477.511719 583.527344 C 476.960938 582.980469 476.4375 582.402344 475.941406 581.800781 C 475.449219 581.199219 474.984375 580.574219 474.550781 579.925781 C 474.121094 579.277344 473.71875 578.613281 473.351562 577.925781 C 472.984375 577.238281 472.652344 576.535156 472.355469 575.816406 C 472.054688 575.097656 471.792969 574.363281 471.566406 573.617188 C 471.339844 572.875 471.152344 572.117188 471 571.355469 C 470.847656 570.589844 470.734375 569.820312 470.65625 569.046875 C 470.582031 568.273438 470.542969 567.496094 470.542969 566.714844 L 470.542969 530.703125 L 518.117188 530.703125 L 518.117188 566.714844 C 518.117188 567.496094 518.078125 568.273438 518.003906 569.046875 C 517.925781 569.820312 517.8125 570.589844 517.660156 571.355469 C 517.507812 572.117188 517.320312 572.875 517.09375 573.617188 C 516.867188 574.363281 516.605469 575.097656 516.308594 575.816406 C 516.007812 576.535156 515.675781 577.238281 515.308594 577.925781 C 514.941406 578.613281 514.542969 579.277344 514.109375 579.925781 C 513.675781 580.574219 513.210938 581.199219 512.71875 581.800781 C 512.222656 582.402344 511.703125 582.980469 511.152344 583.527344 C 510.601562 584.078125 510.023438 584.601562 509.421875 585.097656 C 508.820312 585.589844 508.195312 586.054688 507.546875 586.484375 C 506.898438 586.917969 506.230469 587.320312 505.542969 587.6875 C 504.855469 588.050781 504.152344 588.386719 503.433594 588.683594 C 502.714844 588.980469 501.980469 589.242188 501.234375 589.46875 C 500.488281 589.695312 499.734375 589.882812 498.972656 590.035156 C 498.207031 590.1875 497.4375 590.300781 496.664062 590.378906 C 495.886719 590.453125 495.109375 590.492188 494.332031 590.492188 Z M 494.332031 590.492188 " fill-opacity="1" fill-rule="nonzero"/><path fill="#da922a" d="M 446.757812 590.492188 C 445.972656 590.5 445.191406 590.464844 444.414062 590.394531 C 443.632812 590.324219 442.859375 590.214844 442.089844 590.066406 C 441.320312 589.917969 440.5625 589.734375 439.8125 589.511719 C 439.0625 589.289062 438.324219 589.027344 437.597656 588.734375 C 436.875 588.4375 436.167969 588.109375 435.472656 587.742188 C 434.78125 587.378906 434.109375 586.980469 433.457031 586.546875 C 432.804688 586.117188 432.175781 585.652344 431.566406 585.160156 C 430.960938 584.664062 430.378906 584.144531 429.824219 583.589844 C 429.265625 583.039062 428.742188 582.464844 428.242188 581.859375 C 427.742188 581.257812 427.277344 580.628906 426.839844 579.980469 C 426.402344 579.332031 426 578.664062 425.628906 577.972656 C 425.257812 577.285156 424.921875 576.578125 424.621094 575.855469 C 424.320312 575.132812 424.054688 574.398438 423.828125 573.648438 C 423.597656 572.902344 423.410156 572.144531 423.253906 571.375 C 423.101562 570.609375 422.988281 569.835938 422.910156 569.058594 C 422.832031 568.28125 422.792969 567.5 422.792969 566.714844 L 422.792969 530.703125 L 470.542969 530.703125 L 470.542969 566.714844 C 470.542969 567.496094 470.503906 568.273438 470.429688 569.046875 C 470.351562 569.820312 470.238281 570.589844 470.085938 571.355469 C 469.933594 572.117188 469.746094 572.875 469.519531 573.617188 C 469.292969 574.363281 469.03125 575.097656 468.734375 575.816406 C 468.433594 576.535156 468.101562 577.238281 467.734375 577.925781 C 467.367188 578.613281 466.96875 579.277344 466.535156 579.925781 C 466.101562 580.574219 465.636719 581.199219 465.144531 581.800781 C 464.648438 582.402344 464.128906 582.980469 463.578125 583.527344 C 463.027344 584.078125 462.449219 584.601562 461.847656 585.097656 C 461.246094 585.589844 460.621094 586.054688 459.972656 586.484375 C 459.324219 586.917969 458.65625 587.320312 457.96875 587.6875 C 457.28125 588.054688 456.578125 588.386719 455.859375 588.683594 C 455.140625 588.980469 454.40625 589.242188 453.660156 589.46875 C 452.914062 589.695312 452.160156 589.882812 451.398438 590.035156 C 450.632812 590.1875 449.863281 590.300781 449.085938 590.378906 C 448.3125 590.453125 447.535156 590.492188 446.757812 590.492188 Z M 446.757812 590.492188 " fill-opacity="1" fill-rule="nonzero"/><path fill="#3775a4" d="M 399.007812 590.492188 C 398.226562 590.492188 397.449219 590.453125 396.675781 590.378906 C 395.898438 590.300781 395.128906 590.1875 394.367188 590.035156 C 393.601562 589.882812 392.847656 589.695312 392.101562 589.46875 C 391.355469 589.242188 390.625 588.980469 389.902344 588.683594 C 389.183594 588.386719 388.480469 588.050781 387.792969 587.6875 C 387.105469 587.320312 386.4375 586.917969 385.792969 586.484375 C 385.144531 586.054688 384.519531 585.589844 383.917969 585.097656 C 383.3125 584.601562 382.738281 584.078125 382.1875 583.527344 C 381.636719 582.980469 381.113281 582.402344 380.621094 581.800781 C 380.125 581.199219 379.660156 580.574219 379.230469 579.925781 C 378.796875 579.277344 378.394531 578.613281 378.027344 577.925781 C 377.660156 577.238281 377.328125 576.535156 377.03125 575.816406 C 376.730469 575.097656 376.46875 574.363281 376.242188 573.617188 C 376.019531 572.875 375.828125 572.117188 375.675781 571.355469 C 375.523438 570.589844 375.410156 569.820312 375.335938 569.046875 C 375.257812 568.273438 375.21875 567.496094 375.21875 566.714844 L 375.21875 530.703125 L 422.792969 530.703125 L 422.792969 566.714844 C 422.792969 567.496094 422.757812 568.273438 422.679688 569.046875 C 422.601562 569.820312 422.488281 570.589844 422.335938 571.355469 C 422.183594 572.117188 421.996094 572.875 421.769531 573.617188 C 421.542969 574.363281 421.28125 575.097656 420.984375 575.816406 C 420.683594 576.535156 420.351562 577.238281 419.984375 577.925781 C 419.617188 578.613281 419.21875 579.277344 418.785156 579.925781 C 418.351562 580.574219 417.890625 581.199219 417.394531 581.800781 C 416.902344 582.402344 416.378906 582.980469 415.828125 583.527344 C 415.277344 584.078125 414.699219 584.601562 414.097656 585.097656 C 413.496094 585.589844 412.871094 586.054688 412.222656 586.484375 C 411.574219 586.917969 410.90625 587.320312 410.21875 587.6875 C 409.53125 588.050781 408.828125 588.386719 408.109375 588.683594 C 407.390625 588.980469 406.65625 589.242188 405.910156 589.46875 C 405.167969 589.695312 404.410156 589.882812 403.648438 590.035156 C 402.882812 590.1875 402.113281 590.300781 401.339844 590.378906 C 400.5625 590.453125 399.785156 590.492188 399.007812 590.492188 Z M 399.007812 590.492188 " fill-opacity="1" fill-rule="nonzero"/><path fill="#da922a" d="M 350.734375 590.492188 C 349.941406 590.503906 349.152344 590.476562 348.367188 590.410156 C 347.578125 590.34375 346.792969 590.242188 346.015625 590.097656 C 345.238281 589.957031 344.472656 589.773438 343.710938 589.554688 C 342.949219 589.339844 342.203125 589.082031 341.46875 588.792969 C 340.734375 588.5 340.015625 588.171875 339.3125 587.808594 C 338.609375 587.449219 337.925781 587.050781 337.261719 586.621094 C 336.601562 586.191406 335.957031 585.730469 335.339844 585.238281 C 334.722656 584.746094 334.128906 584.226562 333.5625 583.675781 C 332.996094 583.125 332.457031 582.546875 331.945312 581.945312 C 331.4375 581.339844 330.957031 580.710938 330.507812 580.0625 C 330.058594 579.410156 329.644531 578.742188 329.261719 578.050781 C 328.878906 577.355469 328.53125 576.648438 328.214844 575.921875 C 327.902344 575.199219 327.625 574.457031 327.386719 573.707031 C 327.144531 572.953125 326.941406 572.191406 326.777344 571.417969 C 326.613281 570.644531 326.484375 569.863281 326.394531 569.078125 C 326.308594 568.292969 326.257812 567.507812 326.246094 566.714844 L 326.246094 530.703125 L 375.21875 530.703125 L 375.21875 566.714844 C 375.207031 567.507812 375.160156 568.292969 375.070312 569.078125 C 374.980469 569.863281 374.851562 570.644531 374.6875 571.417969 C 374.523438 572.191406 374.320312 572.953125 374.078125 573.707031 C 373.839844 574.457031 373.5625 575.199219 373.25 575.921875 C 372.9375 576.648438 372.589844 577.355469 372.207031 578.050781 C 371.824219 578.742188 371.40625 579.410156 370.957031 580.0625 C 370.507812 580.710938 370.03125 581.339844 369.519531 581.945312 C 369.007812 582.546875 368.46875 583.125 367.902344 583.675781 C 367.335938 584.226562 366.742188 584.746094 366.125 585.238281 C 365.507812 585.730469 364.867188 586.191406 364.203125 586.621094 C 363.539062 587.050781 362.855469 587.449219 362.152344 587.808594 C 361.449219 588.171875 360.730469 588.5 359.996094 588.792969 C 359.261719 589.082031 358.515625 589.339844 357.753906 589.554688 C 356.996094 589.773438 356.226562 589.957031 355.449219 590.097656 C 354.671875 590.242188 353.886719 590.34375 353.101562 590.410156 C 352.3125 590.476562 351.523438 590.503906 350.734375 590.492188 Z M 350.734375 590.492188 " fill-opacity="1" fill-rule="nonzero"/><g clip-path="url(#57b0f08ab2)"><path fill="#3775a4" d="M 302.457031 590.492188 C 301.679688 590.492188 300.902344 590.453125 300.128906 590.378906 C 299.351562 590.300781 298.582031 590.1875 297.816406 590.035156 C 297.054688 589.882812 296.300781 589.695312 295.554688 589.46875 C 294.808594 589.242188 294.074219 588.980469 293.355469 588.683594 C 292.636719 588.386719 291.933594 588.050781 291.246094 587.6875 C 290.558594 587.320312 289.890625 586.917969 289.242188 586.484375 C 288.59375 586.054688 287.96875 585.589844 287.367188 585.097656 C 286.765625 584.601562 286.191406 584.078125 285.640625 583.527344 C 285.089844 582.980469 284.566406 582.402344 284.070312 581.800781 C 283.578125 581.199219 283.113281 580.574219 282.679688 579.925781 C 282.246094 579.277344 281.847656 578.613281 281.480469 577.925781 C 281.113281 577.238281 280.78125 576.535156 280.480469 575.816406 C 280.183594 575.097656 279.921875 574.363281 279.695312 573.617188 C 279.46875 572.875 279.28125 572.117188 279.128906 571.355469 C 278.976562 570.589844 278.863281 569.820312 278.785156 569.046875 C 278.710938 568.273438 278.671875 567.496094 278.671875 566.714844 L 278.671875 530.703125 L 326.246094 530.703125 L 326.246094 566.714844 C 326.246094 567.496094 326.207031 568.273438 326.132812 569.046875 C 326.054688 569.820312 325.941406 570.589844 325.789062 571.355469 C 325.636719 572.117188 325.449219 572.875 325.222656 573.617188 C 324.996094 574.363281 324.734375 575.097656 324.433594 575.816406 C 324.136719 576.535156 323.804688 577.238281 323.4375 577.925781 C 323.070312 578.613281 322.671875 579.277344 322.238281 579.925781 C 321.804688 580.574219 321.339844 581.199219 320.847656 581.800781 C 320.351562 582.402344 319.828125 582.980469 319.277344 583.527344 C 318.726562 584.078125 318.152344 584.601562 317.550781 585.097656 C 316.945312 585.589844 316.320312 586.054688 315.675781 586.484375 C 315.027344 586.917969 314.359375 587.320312 313.671875 587.6875 C 312.984375 588.050781 312.28125 588.386719 311.5625 588.683594 C 310.84375 588.980469 310.109375 589.242188 309.363281 589.46875 C 308.617188 589.695312 307.863281 589.882812 307.097656 590.035156 C 306.335938 590.1875 305.566406 590.300781 304.789062 590.378906 C 304.015625 590.453125 303.238281 590.492188 302.457031 590.492188 Z M 302.457031 590.492188 " fill-opacity="1" fill-rule="nonzero"/></g><g clip-path="url(#4c38bc3c23)"><path fill="#cecece" d="M 278.671875 466.191406 L 518.117188 466.191406 L 518.117188 530.597656 L 278.671875 530.597656 Z M 278.671875 466.191406 " fill-opacity="1" fill-rule="nonzero"/></g><path fill="#3775a4" d="M 350.207031 632.101562 L 477.363281 632.101562 L 477.363281 700.128906 L 350.207031 700.128906 Z M 350.207031 632.101562 " fill-opacity="1" fill-rule="nonzero"/><path fill="#c7463b" d="M 1064.875 566.714844 C 1064.875 567.496094 1064.835938 568.273438 1064.757812 569.046875 C 1064.683594 569.820312 1064.566406 570.589844 1064.417969 571.355469 C 1064.265625 572.117188 1064.074219 572.875 1063.847656 573.617188 C 1063.621094 574.363281 1063.359375 575.097656 1063.0625 575.816406 C 1062.765625 576.535156 1062.433594 577.238281 1062.0625 577.925781 C 1061.695312 578.613281 1061.296875 579.277344 1060.863281 579.925781 C 1060.429688 580.574219 1059.96875 581.199219 1059.472656 581.800781 C 1058.980469 582.402344 1058.457031 582.980469 1057.90625 583.527344 C 1057.355469 584.078125 1056.777344 584.601562 1056.175781 585.097656 C 1055.574219 585.589844 1054.949219 586.054688 1054.300781 586.484375 C 1053.652344 586.917969 1052.988281 587.320312 1052.300781 587.6875 C 1051.613281 588.050781 1050.910156 588.386719 1050.1875 588.683594 C 1049.46875 588.980469 1048.738281 589.242188 1047.992188 589.46875 C 1047.246094 589.695312 1046.492188 589.882812 1045.726562 590.035156 C 1044.960938 590.1875 1044.191406 590.300781 1043.417969 590.378906 C 1042.640625 590.453125 1041.863281 590.492188 1041.085938 590.492188 C 1040.308594 590.492188 1039.53125 590.453125 1038.753906 590.378906 C 1037.980469 590.300781 1037.210938 590.1875 1036.445312 590.035156 C 1035.679688 589.882812 1034.925781 589.695312 1034.179688 589.46875 C 1033.433594 589.242188 1032.703125 588.980469 1031.984375 588.683594 C 1031.261719 588.386719 1030.558594 588.050781 1029.871094 587.6875 C 1029.1875 587.320312 1028.519531 586.917969 1027.871094 586.484375 C 1027.222656 586.054688 1026.597656 585.589844 1025.996094 585.097656 C 1025.394531 584.601562 1024.816406 584.078125 1024.265625 583.527344 C 1023.714844 582.980469 1023.191406 582.402344 1022.699219 581.800781 C 1022.203125 581.199219 1021.742188 580.574219 1021.308594 579.925781 C 1020.875 579.277344 1020.476562 578.613281 1020.109375 577.925781 C 1019.742188 577.238281 1019.40625 576.535156 1019.109375 575.816406 C 1018.8125 575.097656 1018.550781 574.363281 1018.324219 573.617188 C 1018.097656 572.875 1017.90625 572.117188 1017.757812 571.355469 C 1017.605469 570.589844 1017.488281 569.820312 1017.414062 569.046875 C 1017.335938 568.273438 1017.300781 567.496094 1017.300781 566.714844 C 1017.300781 567.496094 1017.261719 568.273438 1017.183594 569.046875 C 1017.109375 569.820312 1016.992188 570.589844 1016.839844 571.355469 C 1016.691406 572.117188 1016.5 572.875 1016.273438 573.617188 C 1016.046875 574.363281 1015.785156 575.097656 1015.488281 575.816406 C 1015.191406 576.535156 1014.855469 577.238281 1014.488281 577.925781 C 1014.121094 578.613281 1013.722656 579.277344 1013.289062 579.925781 C 1012.855469 580.574219 1012.394531 581.199219 1011.898438 581.800781 C 1011.40625 582.402344 1010.882812 582.980469 1010.332031 583.527344 C 1009.78125 584.078125 1009.203125 584.601562 1008.601562 585.097656 C 1008 585.589844 1007.375 586.054688 1006.726562 586.484375 C 1006.078125 586.917969 1005.410156 587.320312 1004.726562 587.6875 C 1004.039062 588.050781 1003.335938 588.386719 1002.613281 588.683594 C 1001.894531 588.980469 1001.164062 589.242188 1000.417969 589.46875 C 999.671875 589.695312 998.917969 589.882812 998.152344 590.035156 C 997.386719 590.1875 996.617188 590.300781 995.84375 590.378906 C 995.066406 590.453125 994.289062 590.492188 993.511719 590.492188 C 992.734375 590.492188 991.957031 590.453125 991.179688 590.378906 C 990.40625 590.300781 989.636719 590.1875 988.871094 590.035156 C 988.105469 589.882812 987.351562 589.695312 986.605469 589.46875 C 985.859375 589.242188 985.128906 588.980469 984.410156 588.683594 C 983.6875 588.386719 982.984375 588.050781 982.296875 587.6875 C 981.613281 587.320312 980.945312 586.917969 980.296875 586.484375 C 979.648438 586.054688 979.023438 585.589844 978.421875 585.097656 C 977.820312 584.601562 977.242188 584.078125 976.691406 583.527344 C 976.140625 582.980469 975.617188 582.402344 975.125 581.800781 C 974.628906 581.199219 974.167969 580.574219 973.734375 579.925781 C 973.300781 579.277344 972.902344 578.613281 972.53125 577.925781 C 972.164062 577.238281 971.832031 576.535156 971.535156 575.816406 C 971.238281 575.097656 970.976562 574.363281 970.75 573.617188 C 970.523438 572.875 970.332031 572.117188 970.179688 571.355469 C 970.03125 570.589844 969.914062 569.820312 969.839844 569.046875 C 969.761719 568.273438 969.722656 567.496094 969.722656 566.714844 C 969.660156 567.457031 969.5625 568.191406 969.433594 568.921875 C 969.300781 569.648438 969.136719 570.371094 968.9375 571.085938 C 968.738281 571.800781 968.507812 572.503906 968.242188 573.199219 C 967.976562 573.890625 967.683594 574.570312 967.355469 575.238281 C 967.027344 575.902344 966.671875 576.550781 966.28125 577.183594 C 965.894531 577.816406 965.480469 578.429688 965.035156 579.023438 C 964.589844 579.617188 964.117188 580.1875 963.621094 580.738281 C 963.125 581.289062 962.601562 581.816406 962.054688 582.316406 C 961.507812 582.816406 960.9375 583.292969 960.347656 583.742188 C 959.757812 584.191406 959.148438 584.609375 958.515625 585.003906 C 957.886719 585.394531 957.242188 585.757812 956.578125 586.089844 C 955.914062 586.421875 955.234375 586.722656 954.542969 586.992188 C 953.851562 587.261719 953.152344 587.496094 952.4375 587.699219 C 951.722656 587.90625 951.003906 588.074219 950.273438 588.210938 C 949.542969 588.347656 948.808594 588.453125 948.070312 588.519531 C 947.332031 588.589844 946.59375 588.625 945.851562 588.625 C 945.109375 588.625 944.367188 588.589844 943.628906 588.519531 C 942.890625 588.453125 942.15625 588.347656 941.425781 588.210938 C 940.695312 588.074219 939.976562 587.90625 939.261719 587.699219 C 938.550781 587.496094 937.847656 587.261719 937.15625 586.992188 C 936.464844 586.722656 935.785156 586.421875 935.121094 586.089844 C 934.460938 585.757812 933.8125 585.394531 933.183594 585.003906 C 932.550781 584.609375 931.941406 584.191406 931.351562 583.742188 C 930.761719 583.292969 930.191406 582.816406 929.644531 582.316406 C 929.097656 581.816406 928.578125 581.289062 928.078125 580.738281 C 927.582031 580.1875 927.109375 579.617188 926.664062 579.023438 C 926.222656 578.429688 925.804688 577.816406 925.417969 577.183594 C 925.03125 576.550781 924.671875 575.902344 924.34375 575.238281 C 924.015625 574.570312 923.722656 573.890625 923.457031 573.199219 C 923.191406 572.503906 922.960938 571.800781 922.761719 571.085938 C 922.5625 570.371094 922.398438 569.648438 922.269531 568.921875 C 922.136719 568.191406 922.039062 567.457031 921.976562 566.714844 L 921.976562 765.84375 L 1128.363281 765.84375 L 1128.363281 588.570312 C 1127.296875 588.117188 1126.265625 587.589844 1125.273438 586.988281 C 1124.28125 586.386719 1123.339844 585.714844 1122.445312 584.972656 C 1121.554688 584.234375 1120.71875 583.429688 1119.945312 582.570312 C 1119.167969 581.707031 1118.460938 580.792969 1117.816406 579.824219 C 1117.175781 578.859375 1116.609375 577.851562 1116.113281 576.800781 C 1115.617188 575.753906 1115.203125 574.671875 1114.867188 573.5625 C 1114.53125 572.453125 1114.277344 571.324219 1114.105469 570.175781 C 1113.933594 569.03125 1113.847656 567.875 1113.847656 566.714844 C 1113.785156 567.457031 1113.6875 568.191406 1113.554688 568.921875 C 1113.421875 569.648438 1113.257812 570.371094 1113.058594 571.085938 C 1112.859375 571.800781 1112.628906 572.503906 1112.363281 573.199219 C 1112.101562 573.890625 1111.804688 574.570312 1111.476562 575.238281 C 1111.148438 575.902344 1110.792969 576.550781 1110.40625 577.183594 C 1110.015625 577.816406 1109.601562 578.429688 1109.15625 579.023438 C 1108.710938 579.617188 1108.242188 580.1875 1107.742188 580.738281 C 1107.246094 581.289062 1106.722656 581.816406 1106.175781 582.316406 C 1105.628906 582.816406 1105.0625 583.292969 1104.46875 583.742188 C 1103.878906 584.191406 1103.269531 584.609375 1102.640625 585.003906 C 1102.011719 585.394531 1101.363281 585.757812 1100.699219 586.089844 C 1100.035156 586.421875 1099.359375 586.722656 1098.667969 586.992188 C 1097.976562 587.261719 1097.273438 587.496094 1096.558594 587.699219 C 1095.847656 587.90625 1095.125 588.074219 1094.394531 588.210938 C 1093.667969 588.347656 1092.933594 588.453125 1092.195312 588.519531 C 1091.453125 588.589844 1090.714844 588.625 1089.972656 588.625 C 1089.230469 588.625 1088.488281 588.589844 1087.75 588.519531 C 1087.011719 588.453125 1086.277344 588.347656 1085.550781 588.210938 C 1084.820312 588.074219 1084.097656 587.90625 1083.386719 587.699219 C 1082.671875 587.496094 1081.96875 587.261719 1081.277344 586.992188 C 1080.585938 586.722656 1079.910156 586.421875 1079.246094 586.089844 C 1078.582031 585.757812 1077.933594 585.394531 1077.304688 585.003906 C 1076.675781 584.609375 1076.066406 584.191406 1075.472656 583.742188 C 1074.882812 583.292969 1074.316406 582.816406 1073.769531 582.316406 C 1073.222656 581.816406 1072.699219 581.289062 1072.203125 580.738281 C 1071.703125 580.1875 1071.234375 579.617188 1070.789062 579.023438 C 1070.34375 578.429688 1069.925781 577.816406 1069.539062 577.183594 C 1069.152344 576.550781 1068.792969 575.902344 1068.46875 575.238281 C 1068.140625 574.570312 1067.84375 573.890625 1067.578125 573.199219 C 1067.316406 572.503906 1067.085938 571.800781 1066.886719 571.085938 C 1066.6875 570.371094 1066.523438 569.648438 1066.390625 568.921875 C 1066.257812 568.191406 1066.160156 567.457031 1066.097656 566.714844 Z M 1064.875 566.714844 " fill-opacity="1" fill-rule="nonzero"/><path fill="#3775a4" d="M 945.761719 590.492188 C 946.546875 590.5 947.328125 590.464844 948.105469 590.394531 C 948.886719 590.324219 949.660156 590.214844 950.429688 590.066406 C 951.195312 589.917969 951.957031 589.734375 952.707031 589.511719 C 953.457031 589.289062 954.195312 589.027344 954.917969 588.734375 C 955.644531 588.4375 956.351562 588.109375 957.042969 587.742188 C 957.738281 587.378906 958.410156 586.980469 959.0625 586.546875 C 959.714844 586.117188 960.34375 585.652344 960.953125 585.160156 C 961.558594 584.664062 962.140625 584.140625 962.695312 583.589844 C 963.25 583.039062 963.777344 582.464844 964.277344 581.859375 C 964.773438 581.257812 965.242188 580.628906 965.679688 579.980469 C 966.117188 579.332031 966.519531 578.664062 966.890625 577.972656 C 967.261719 577.285156 967.597656 576.578125 967.898438 575.855469 C 968.199219 575.132812 968.460938 574.398438 968.691406 573.648438 C 968.917969 572.902344 969.109375 572.144531 969.261719 571.375 C 969.417969 570.609375 969.53125 569.835938 969.609375 569.058594 C 969.6875 568.28125 969.726562 567.5 969.722656 566.714844 L 969.722656 530.703125 L 921.976562 530.703125 L 921.976562 566.714844 C 921.976562 567.496094 922.011719 568.273438 922.089844 569.046875 C 922.167969 569.820312 922.28125 570.589844 922.433594 571.355469 C 922.585938 572.117188 922.773438 572.875 923 573.617188 C 923.226562 574.363281 923.488281 575.097656 923.785156 575.816406 C 924.085938 576.535156 924.417969 577.238281 924.785156 577.925781 C 925.152344 578.613281 925.550781 579.277344 925.984375 579.925781 C 926.417969 580.574219 926.878906 581.199219 927.375 581.800781 C 927.867188 582.402344 928.390625 582.980469 928.941406 583.527344 C 929.492188 584.078125 930.070312 584.601562 930.671875 585.097656 C 931.273438 585.589844 931.898438 586.054688 932.546875 586.484375 C 933.195312 586.917969 933.863281 587.320312 934.550781 587.6875 C 935.234375 588.050781 935.941406 588.386719 936.660156 588.683594 C 937.378906 588.980469 938.113281 589.242188 938.855469 589.46875 C 939.601562 589.695312 940.359375 589.882812 941.121094 590.035156 C 941.886719 590.1875 942.65625 590.300781 943.429688 590.378906 C 944.207031 590.453125 944.984375 590.492188 945.761719 590.492188 Z M 945.761719 590.492188 " fill-opacity="1" fill-rule="nonzero"/><path fill="#da922a" d="M 993.511719 590.492188 C 994.289062 590.492188 995.066406 590.453125 995.84375 590.378906 C 996.617188 590.300781 997.386719 590.1875 998.152344 590.035156 C 998.917969 589.882812 999.671875 589.695312 1000.417969 589.46875 C 1001.164062 589.242188 1001.894531 588.980469 1002.613281 588.683594 C 1003.335938 588.386719 1004.039062 588.050781 1004.726562 587.6875 C 1005.410156 587.320312 1006.078125 586.917969 1006.726562 586.484375 C 1007.375 586.054688 1008 585.589844 1008.601562 585.097656 C 1009.203125 584.601562 1009.78125 584.078125 1010.332031 583.527344 C 1010.882812 582.980469 1011.40625 582.402344 1011.898438 581.800781 C 1012.394531 581.199219 1012.855469 580.574219 1013.289062 579.925781 C 1013.722656 579.277344 1014.121094 578.613281 1014.488281 577.925781 C 1014.855469 577.238281 1015.191406 576.535156 1015.488281 575.816406 C 1015.785156 575.097656 1016.046875 574.363281 1016.273438 573.617188 C 1016.5 572.875 1016.691406 572.117188 1016.84375 571.355469 C 1016.992188 570.589844 1017.109375 569.820312 1017.183594 569.046875 C 1017.261719 568.273438 1017.300781 567.496094 1017.300781 566.714844 L 1017.300781 530.703125 L 969.722656 530.703125 L 969.722656 566.714844 C 969.726562 567.496094 969.761719 568.273438 969.839844 569.046875 C 969.914062 569.820312 970.03125 570.589844 970.179688 571.355469 C 970.332031 572.117188 970.523438 572.875 970.75 573.617188 C 970.976562 574.363281 971.238281 575.097656 971.535156 575.816406 C 971.832031 576.535156 972.167969 577.238281 972.535156 577.925781 C 972.902344 578.613281 973.300781 579.277344 973.734375 579.925781 C 974.167969 580.574219 974.628906 581.199219 975.125 581.800781 C 975.617188 582.402344 976.140625 582.980469 976.691406 583.527344 C 977.242188 584.078125 977.820312 584.601562 978.421875 585.097656 C 979.023438 585.589844 979.648438 586.054688 980.296875 586.484375 C 980.945312 586.917969 981.613281 587.320312 982.296875 587.6875 C 982.984375 588.050781 983.6875 588.386719 984.410156 588.683594 C 985.128906 588.980469 985.859375 589.242188 986.605469 589.46875 C 987.351562 589.695312 988.105469 589.882812 988.871094 590.035156 C 989.636719 590.1875 990.40625 590.300781 991.179688 590.378906 C 991.957031 590.453125 992.734375 590.492188 993.511719 590.492188 Z M 993.511719 590.492188 " fill-opacity="1" fill-rule="nonzero"/><path fill="#3775a4" d="M 1041.085938 590.492188 C 1041.863281 590.492188 1042.640625 590.453125 1043.417969 590.378906 C 1044.191406 590.300781 1044.960938 590.1875 1045.726562 590.035156 C 1046.492188 589.882812 1047.246094 589.695312 1047.992188 589.46875 C 1048.738281 589.242188 1049.46875 588.980469 1050.1875 588.683594 C 1050.910156 588.386719 1051.613281 588.050781 1052.300781 587.6875 C 1052.988281 587.320312 1053.652344 586.917969 1054.300781 586.484375 C 1054.949219 586.054688 1055.574219 585.589844 1056.175781 585.097656 C 1056.777344 584.601562 1057.355469 584.078125 1057.90625 583.527344 C 1058.457031 582.980469 1058.980469 582.402344 1059.472656 581.800781 C 1059.96875 581.199219 1060.429688 580.574219 1060.863281 579.925781 C 1061.296875 579.277344 1061.695312 578.613281 1062.066406 577.925781 C 1062.433594 577.238281 1062.765625 576.535156 1063.0625 575.816406 C 1063.359375 575.097656 1063.621094 574.363281 1063.847656 573.617188 C 1064.074219 572.875 1064.265625 572.117188 1064.417969 571.355469 C 1064.566406 570.589844 1064.683594 569.820312 1064.757812 569.046875 C 1064.835938 568.273438 1064.875 567.496094 1064.875 566.714844 L 1064.875 530.703125 L 1017.300781 530.703125 L 1017.300781 566.714844 C 1017.300781 567.496094 1017.335938 568.273438 1017.414062 569.046875 C 1017.488281 569.820312 1017.605469 570.589844 1017.757812 571.355469 C 1017.90625 572.117188 1018.097656 572.875 1018.324219 573.617188 C 1018.550781 574.363281 1018.8125 575.097656 1019.109375 575.816406 C 1019.40625 576.535156 1019.742188 577.238281 1020.109375 577.925781 C 1020.476562 578.613281 1020.875 579.277344 1021.308594 579.925781 C 1021.742188 580.574219 1022.203125 581.199219 1022.699219 581.800781 C 1023.191406 582.402344 1023.714844 582.980469 1024.265625 583.527344 C 1024.816406 584.078125 1025.394531 584.601562 1025.996094 585.097656 C 1026.597656 585.589844 1027.222656 586.054688 1027.871094 586.484375 C 1028.519531 586.917969 1029.1875 587.320312 1029.871094 587.6875 C 1030.558594 588.050781 1031.261719 588.386719 1031.984375 588.683594 C 1032.703125 588.980469 1033.433594 589.242188 1034.179688 589.46875 C 1034.925781 589.695312 1035.679688 589.882812 1036.445312 590.035156 C 1037.210938 590.1875 1037.980469 590.300781 1038.753906 590.378906 C 1039.53125 590.453125 1040.308594 590.492188 1041.085938 590.492188 Z M 1041.085938 590.492188 " fill-opacity="1" fill-rule="nonzero"/><path fill="#da922a" d="M 1089.359375 590.492188 C 1090.152344 590.503906 1090.941406 590.476562 1091.726562 590.410156 C 1092.515625 590.34375 1093.296875 590.242188 1094.074219 590.097656 C 1094.851562 589.957031 1095.621094 589.773438 1096.382812 589.554688 C 1097.140625 589.339844 1097.890625 589.082031 1098.625 588.792969 C 1099.359375 588.5 1100.078125 588.171875 1100.78125 587.808594 C 1101.484375 587.449219 1102.164062 587.050781 1102.828125 586.621094 C 1103.492188 586.191406 1104.132812 585.730469 1104.753906 585.238281 C 1105.371094 584.746094 1105.964844 584.226562 1106.53125 583.675781 C 1107.097656 583.125 1107.636719 582.546875 1108.148438 581.945312 C 1108.65625 581.339844 1109.136719 580.710938 1109.585938 580.0625 C 1110.035156 579.410156 1110.449219 578.742188 1110.832031 578.050781 C 1111.214844 577.355469 1111.5625 576.648438 1111.875 575.921875 C 1112.191406 575.199219 1112.464844 574.457031 1112.707031 573.707031 C 1112.945312 572.953125 1113.148438 572.191406 1113.316406 571.417969 C 1113.480469 570.644531 1113.609375 569.863281 1113.695312 569.078125 C 1113.785156 568.292969 1113.835938 567.507812 1113.847656 566.714844 L 1113.847656 530.703125 L 1064.875 530.703125 L 1064.875 566.714844 C 1064.882812 567.507812 1064.933594 568.292969 1065.023438 569.078125 C 1065.113281 569.863281 1065.238281 570.644531 1065.40625 571.417969 C 1065.570312 572.191406 1065.773438 572.953125 1066.011719 573.707031 C 1066.253906 574.457031 1066.53125 575.199219 1066.84375 575.921875 C 1067.15625 576.648438 1067.503906 577.355469 1067.886719 578.050781 C 1068.269531 578.742188 1068.6875 579.410156 1069.132812 580.0625 C 1069.582031 580.710938 1070.0625 581.339844 1070.574219 581.945312 C 1071.082031 582.546875 1071.621094 583.125 1072.191406 583.675781 C 1072.757812 584.226562 1073.347656 584.746094 1073.96875 585.238281 C 1074.585938 585.730469 1075.226562 586.191406 1075.890625 586.621094 C 1076.554688 587.050781 1077.238281 587.449219 1077.941406 587.808594 C 1078.644531 588.171875 1079.363281 588.5 1080.097656 588.792969 C 1080.832031 589.082031 1081.578125 589.339844 1082.339844 589.554688 C 1083.097656 589.773438 1083.867188 589.957031 1084.644531 590.097656 C 1085.421875 590.242188 1086.203125 590.34375 1086.992188 590.410156 C 1087.78125 590.476562 1088.570312 590.503906 1089.359375 590.492188 Z M 1089.359375 590.492188 " fill-opacity="1" fill-rule="nonzero"/><g clip-path="url(#7893d9ced3)"><path fill="#3775a4" d="M 1137.632812 590.492188 C 1138.414062 590.492188 1139.191406 590.453125 1139.964844 590.378906 C 1140.742188 590.300781 1141.511719 590.1875 1142.273438 590.035156 C 1143.039062 589.882812 1143.792969 589.695312 1144.539062 589.46875 C 1145.285156 589.242188 1146.015625 588.980469 1146.738281 588.683594 C 1147.457031 588.386719 1148.160156 588.050781 1148.847656 587.6875 C 1149.535156 587.320312 1150.203125 586.917969 1150.847656 586.484375 C 1151.496094 586.054688 1152.121094 585.589844 1152.722656 585.097656 C 1153.328125 584.601562 1153.902344 584.078125 1154.453125 583.527344 C 1155.003906 582.980469 1155.527344 582.402344 1156.023438 581.800781 C 1156.515625 581.199219 1156.980469 580.574219 1157.414062 579.925781 C 1157.84375 579.277344 1158.246094 578.613281 1158.613281 577.925781 C 1158.980469 577.238281 1159.3125 576.535156 1159.609375 575.816406 C 1159.910156 575.097656 1160.171875 574.363281 1160.398438 573.617188 C 1160.625 572.875 1160.8125 572.117188 1160.964844 571.355469 C 1161.117188 570.589844 1161.230469 569.820312 1161.308594 569.046875 C 1161.382812 568.273438 1161.421875 567.496094 1161.421875 566.714844 L 1161.421875 530.703125 L 1113.847656 530.703125 L 1113.847656 566.714844 C 1113.847656 567.496094 1113.886719 568.273438 1113.960938 569.046875 C 1114.039062 569.820312 1114.152344 570.589844 1114.304688 571.355469 C 1114.457031 572.117188 1114.644531 572.875 1114.871094 573.617188 C 1115.097656 574.363281 1115.359375 575.097656 1115.65625 575.816406 C 1115.957031 576.535156 1116.289062 577.238281 1116.65625 577.925781 C 1117.023438 578.613281 1117.421875 579.277344 1117.855469 579.925781 C 1118.289062 580.574219 1118.753906 581.199219 1119.246094 581.800781 C 1119.742188 582.402344 1120.261719 582.980469 1120.8125 583.527344 C 1121.363281 584.078125 1121.941406 584.601562 1122.542969 585.097656 C 1123.144531 585.589844 1123.769531 586.054688 1124.417969 586.484375 C 1125.066406 586.917969 1125.734375 587.320312 1126.421875 587.6875 C 1127.109375 588.050781 1127.8125 588.386719 1128.53125 588.683594 C 1129.25 588.980469 1129.984375 589.242188 1130.730469 589.46875 C 1131.472656 589.695312 1132.230469 589.882812 1132.992188 590.035156 C 1133.757812 590.1875 1134.527344 590.300781 1135.300781 590.378906 C 1136.078125 590.453125 1136.855469 590.492188 1137.632812 590.492188 Z M 1137.632812 590.492188 " fill-opacity="1" fill-rule="nonzero"/></g><g clip-path="url(#a82d3cb651)"><path fill="#cecece" d="M 1161.421875 530.703125 L 921.976562 530.703125 L 921.976562 466.296875 L 1161.421875 466.296875 Z M 1161.421875 530.703125 " fill-opacity="1" fill-rule="nonzero"/></g><path fill="#3775a4" d="M 962.902344 632.101562 L 1090.058594 632.101562 L 1090.058594 700.128906 L 962.902344 700.128906 Z M 962.902344 632.101562 " fill-opacity="1" fill-rule="nonzero"/><path fill="#da922a" d="M 560.792969 133.667969 L 887.167969 133.667969 L 887.167969 310.980469 L 560.792969 310.980469 Z M 560.792969 133.667969 " fill-opacity="1" fill-rule="nonzero"/><path fill="#c7463b" d="M 849.039062 79.824219 C 848.003906 78.519531 846.835938 77.347656 845.535156 76.304688 C 844.234375 75.265625 842.835938 74.382812 841.339844 73.65625 C 839.839844 72.929688 838.277344 72.378906 836.65625 72.003906 C 835.035156 71.628906 833.390625 71.4375 831.722656 71.429688 L 629.359375 71.429688 L 626.035156 52.375 C 625.820312 51.066406 625.5 49.785156 625.082031 48.527344 C 624.664062 47.273438 624.152344 46.054688 623.539062 44.878906 C 622.929688 43.703125 622.230469 42.582031 621.445312 41.515625 C 620.65625 40.453125 619.789062 39.453125 618.84375 38.527344 C 617.898438 37.597656 616.886719 36.746094 615.808594 35.976562 C 614.730469 35.210938 613.597656 34.53125 612.410156 33.9375 C 611.222656 33.347656 610 32.855469 608.734375 32.457031 C 607.46875 32.058594 606.183594 31.765625 604.871094 31.570312 L 577.234375 26.851562 C 576.558594 26.738281 575.875 26.691406 575.191406 26.710938 C 574.503906 26.734375 573.824219 26.820312 573.15625 26.976562 C 572.488281 27.128906 571.839844 27.347656 571.214844 27.628906 C 570.585938 27.90625 569.992188 28.246094 569.433594 28.644531 C 568.875 29.042969 568.359375 29.492188 567.886719 29.988281 C 567.414062 30.488281 566.996094 31.027344 566.628906 31.609375 C 566.261719 32.1875 565.957031 32.800781 565.710938 33.441406 C 565.464844 34.082031 565.285156 34.742188 565.167969 35.417969 C 565.042969 36.09375 564.984375 36.78125 565 37.46875 C 565.011719 38.160156 565.089844 38.839844 565.238281 39.515625 C 565.390625 40.1875 565.601562 40.839844 565.882812 41.46875 C 566.164062 42.101562 566.503906 42.695312 566.902344 43.257812 C 567.300781 43.820312 567.753906 44.339844 568.257812 44.808594 C 568.761719 45.28125 569.304688 45.699219 569.890625 46.0625 C 570.480469 46.425781 571.097656 46.726562 571.742188 46.964844 C 572.390625 47.203125 573.054688 47.375 573.738281 47.480469 L 601.371094 52.199219 C 601.855469 52.261719 602.320312 52.394531 602.761719 52.597656 C 603.207031 52.800781 603.605469 53.070312 603.96875 53.398438 C 604.328125 53.726562 604.628906 54.101562 604.875 54.523438 C 605.117188 54.945312 605.292969 55.394531 605.394531 55.871094 L 637.578125 239.789062 L 802.164062 239.789062 C 802.855469 239.789062 803.535156 239.722656 804.210938 239.589844 C 804.886719 239.453125 805.542969 239.253906 806.179688 238.992188 C 806.816406 238.726562 807.421875 238.40625 807.996094 238.023438 C 808.566406 237.640625 809.097656 237.203125 809.585938 236.71875 C 810.074219 236.230469 810.507812 235.699219 810.890625 235.128906 C 811.273438 234.554688 811.597656 233.949219 811.859375 233.316406 C 812.125 232.679688 812.324219 232.023438 812.457031 231.347656 C 812.59375 230.671875 812.660156 229.988281 812.660156 229.300781 C 812.660156 228.613281 812.59375 227.929688 812.457031 227.253906 C 812.324219 226.578125 812.125 225.921875 811.859375 225.285156 C 811.597656 224.648438 811.273438 224.046875 810.890625 223.472656 C 810.507812 222.898438 810.074219 222.371094 809.585938 221.882812 C 809.097656 221.394531 808.566406 220.960938 807.996094 220.578125 C 807.421875 220.195312 806.816406 219.871094 806.179688 219.609375 C 805.542969 219.34375 804.886719 219.148438 804.210938 219.011719 C 803.535156 218.878906 802.855469 218.8125 802.164062 218.8125 L 655.070312 218.8125 L 652.09375 201.152344 L 805.136719 202.027344 L 805.3125 202.027344 C 806.859375 202.0625 808.402344 201.96875 809.933594 201.746094 C 811.464844 201.519531 812.964844 201.167969 814.4375 200.691406 C 815.910156 200.214844 817.332031 199.613281 818.703125 198.894531 C 820.074219 198.175781 821.375 197.347656 822.609375 196.410156 C 823.839844 195.472656 824.980469 194.4375 826.039062 193.304688 C 827.09375 192.171875 828.046875 190.960938 828.898438 189.667969 C 829.746094 188.375 830.484375 187.019531 831.105469 185.601562 C 831.726562 184.183594 832.222656 182.722656 832.597656 181.222656 L 852.886719 97.132812 C 853.238281 95.636719 853.414062 94.121094 853.425781 92.585938 C 853.433594 91.054688 853.269531 89.535156 852.9375 88.039062 C 852.605469 86.539062 852.109375 85.097656 851.449219 83.710938 C 850.792969 82.324219 849.988281 81.027344 849.039062 79.824219 Z M 698.621094 92.410156 L 758.261719 92.410156 L 746.371094 180.699219 L 707.191406 180.699219 Z M 633.03125 92.410156 L 677.457031 92.410156 L 686.027344 180.347656 L 648.421875 180 Z M 812.308594 176.328125 C 812.0625 177.046875 811.707031 177.710938 811.246094 178.316406 C 810.78125 178.921875 810.234375 179.433594 809.605469 179.859375 C 808.972656 180.289062 808.289062 180.601562 807.554688 180.804688 C 806.820312 181.007812 806.074219 181.089844 805.3125 181.046875 L 767.535156 181.046875 L 779.425781 92.585938 L 832.421875 92.585938 Z M 812.308594 176.328125 " fill-opacity="1" fill-rule="nonzero"/><path fill="#c7463b" d="M 698.269531 268.460938 C 698.269531 269.058594 698.242188 269.652344 698.183594 270.242188 C 698.125 270.835938 698.039062 271.425781 697.921875 272.007812 C 697.804688 272.59375 697.660156 273.167969 697.488281 273.738281 C 697.316406 274.308594 697.113281 274.871094 696.886719 275.417969 C 696.65625 275.96875 696.402344 276.507812 696.121094 277.03125 C 695.84375 277.558594 695.535156 278.066406 695.203125 278.5625 C 694.875 279.058594 694.519531 279.535156 694.140625 279.996094 C 693.765625 280.457031 693.363281 280.898438 692.941406 281.316406 C 692.523438 281.738281 692.082031 282.140625 691.621094 282.515625 C 691.160156 282.894531 690.683594 283.25 690.1875 283.578125 C 689.691406 283.910156 689.179688 284.214844 688.65625 284.496094 C 688.128906 284.777344 687.59375 285.03125 687.042969 285.257812 C 686.492188 285.488281 685.929688 285.6875 685.359375 285.859375 C 684.789062 286.035156 684.214844 286.179688 683.628906 286.292969 C 683.046875 286.410156 682.457031 286.496094 681.863281 286.554688 C 681.269531 286.613281 680.675781 286.644531 680.082031 286.644531 C 679.484375 286.644531 678.890625 286.613281 678.296875 286.554688 C 677.703125 286.496094 677.117188 286.410156 676.53125 286.292969 C 675.949219 286.179688 675.371094 286.035156 674.800781 285.859375 C 674.230469 285.6875 673.667969 285.488281 673.121094 285.257812 C 672.570312 285.03125 672.03125 284.777344 671.503906 284.496094 C 670.980469 284.214844 670.46875 283.910156 669.972656 283.578125 C 669.480469 283.25 669 282.894531 668.539062 282.515625 C 668.082031 282.140625 667.640625 281.738281 667.21875 281.316406 C 666.796875 280.898438 666.398438 280.457031 666.019531 279.996094 C 665.640625 279.535156 665.285156 279.058594 664.957031 278.5625 C 664.625 278.066406 664.320312 277.558594 664.039062 277.03125 C 663.757812 276.507812 663.503906 275.96875 663.273438 275.417969 C 663.046875 274.871094 662.847656 274.308594 662.671875 273.738281 C 662.5 273.167969 662.355469 272.59375 662.238281 272.007812 C 662.125 271.425781 662.035156 270.835938 661.976562 270.242188 C 661.917969 269.652344 661.890625 269.058594 661.890625 268.460938 C 661.890625 267.867188 661.917969 267.273438 661.976562 266.679688 C 662.035156 266.085938 662.125 265.5 662.238281 264.914062 C 662.355469 264.332031 662.5 263.753906 662.671875 263.183594 C 662.847656 262.613281 663.046875 262.054688 663.273438 261.503906 C 663.503906 260.953125 663.757812 260.414062 664.039062 259.890625 C 664.320312 259.367188 664.625 258.855469 664.957031 258.359375 C 665.285156 257.863281 665.640625 257.386719 666.019531 256.925781 C 666.398438 256.464844 666.796875 256.027344 667.21875 255.605469 C 667.640625 255.183594 668.082031 254.785156 668.539062 254.40625 C 669 254.027344 669.480469 253.675781 669.972656 253.34375 C 670.46875 253.011719 670.980469 252.707031 671.503906 252.425781 C 672.03125 252.144531 672.570312 251.890625 673.121094 251.664062 C 673.667969 251.4375 674.230469 251.234375 674.800781 251.0625 C 675.371094 250.890625 675.949219 250.746094 676.53125 250.628906 C 677.117188 250.511719 677.703125 250.425781 678.296875 250.367188 C 678.890625 250.308594 679.484375 250.28125 680.082031 250.28125 C 680.675781 250.28125 681.269531 250.308594 681.863281 250.367188 C 682.457031 250.425781 683.046875 250.511719 683.628906 250.628906 C 684.214844 250.746094 684.789062 250.890625 685.359375 251.0625 C 685.929688 251.234375 686.492188 251.4375 687.042969 251.664062 C 687.59375 251.890625 688.128906 252.144531 688.65625 252.425781 C 689.179688 252.707031 689.691406 253.011719 690.1875 253.34375 C 690.683594 253.675781 691.160156 254.027344 691.621094 254.40625 C 692.082031 254.785156 692.523438 255.183594 692.941406 255.605469 C 693.363281 256.027344 693.765625 256.464844 694.140625 256.925781 C 694.519531 257.386719 694.875 257.863281 695.207031 258.359375 C 695.535156 258.855469 695.84375 259.367188 696.121094 259.890625 C 696.402344 260.414062 696.65625 260.953125 696.886719 261.503906 C 697.113281 262.054688 697.316406 262.613281 697.488281 263.183594 C 697.660156 263.753906 697.804688 264.332031 697.921875 264.914062 C 698.039062 265.5 698.125 266.085938 698.183594 266.679688 C 698.242188 267.273438 698.269531 267.867188 698.269531 268.460938 Z M 698.269531 268.460938 " fill-opacity="1" fill-rule="nonzero"/><path fill="#c7463b" d="M 797.96875 268.460938 C 797.96875 269.058594 797.9375 269.652344 797.878906 270.242188 C 797.820312 270.835938 797.734375 271.425781 797.617188 272.007812 C 797.5 272.59375 797.355469 273.167969 797.183594 273.738281 C 797.011719 274.308594 796.808594 274.871094 796.582031 275.417969 C 796.355469 275.96875 796.101562 276.507812 795.820312 277.03125 C 795.539062 277.558594 795.230469 278.066406 794.902344 278.5625 C 794.570312 279.058594 794.214844 279.535156 793.839844 279.996094 C 793.460938 280.457031 793.058594 280.898438 792.640625 281.316406 C 792.21875 281.738281 791.777344 282.140625 791.316406 282.515625 C 790.855469 282.894531 790.378906 283.25 789.882812 283.578125 C 789.386719 283.910156 788.878906 284.214844 788.351562 284.496094 C 787.828125 284.777344 787.289062 285.03125 786.738281 285.257812 C 786.1875 285.488281 785.628906 285.6875 785.058594 285.859375 C 784.488281 286.035156 783.910156 286.179688 783.324219 286.292969 C 782.742188 286.410156 782.152344 286.496094 781.558594 286.554688 C 780.96875 286.613281 780.371094 286.644531 779.777344 286.644531 C 779.179688 286.644531 778.585938 286.613281 777.992188 286.554688 C 777.402344 286.496094 776.8125 286.410156 776.226562 286.292969 C 775.644531 286.179688 775.066406 286.035156 774.496094 285.859375 C 773.925781 285.6875 773.367188 285.488281 772.816406 285.257812 C 772.265625 285.03125 771.726562 284.777344 771.203125 284.496094 C 770.675781 284.214844 770.167969 283.910156 769.671875 283.578125 C 769.175781 283.25 768.699219 282.894531 768.238281 282.515625 C 767.777344 282.140625 767.335938 281.738281 766.914062 281.316406 C 766.492188 280.898438 766.09375 280.457031 765.714844 279.996094 C 765.335938 279.535156 764.984375 279.058594 764.652344 278.5625 C 764.320312 278.066406 764.015625 277.558594 763.734375 277.03125 C 763.453125 276.507812 763.199219 275.96875 762.972656 275.417969 C 762.742188 274.871094 762.542969 274.308594 762.371094 273.738281 C 762.195312 273.167969 762.050781 272.59375 761.9375 272.007812 C 761.820312 271.425781 761.734375 270.835938 761.675781 270.242188 C 761.617188 269.652344 761.585938 269.058594 761.585938 268.460938 C 761.585938 267.867188 761.617188 267.273438 761.675781 266.679688 C 761.734375 266.085938 761.820312 265.5 761.9375 264.914062 C 762.050781 264.332031 762.195312 263.753906 762.371094 263.183594 C 762.542969 262.613281 762.742188 262.054688 762.972656 261.503906 C 763.199219 260.953125 763.453125 260.414062 763.734375 259.890625 C 764.015625 259.367188 764.320312 258.855469 764.652344 258.359375 C 764.984375 257.863281 765.335938 257.386719 765.714844 256.925781 C 766.09375 256.464844 766.492188 256.027344 766.914062 255.605469 C 767.335938 255.183594 767.777344 254.785156 768.238281 254.40625 C 768.699219 254.027344 769.175781 253.675781 769.671875 253.34375 C 770.167969 253.011719 770.675781 252.707031 771.203125 252.425781 C 771.726562 252.144531 772.265625 251.890625 772.816406 251.664062 C 773.367188 251.4375 773.925781 251.234375 774.496094 251.0625 C 775.066406 250.890625 775.644531 250.746094 776.226562 250.628906 C 776.8125 250.511719 777.402344 250.425781 777.992188 250.367188 C 778.585938 250.308594 779.179688 250.28125 779.777344 250.28125 C 780.371094 250.28125 780.96875 250.308594 781.558594 250.367188 C 782.152344 250.425781 782.742188 250.511719 783.324219 250.628906 C 783.910156 250.746094 784.488281 250.890625 785.058594 251.0625 C 785.628906 251.234375 786.1875 251.4375 786.738281 251.664062 C 787.289062 251.890625 787.828125 252.144531 788.351562 252.425781 C 788.878906 252.707031 789.386719 253.011719 789.882812 253.34375 C 790.378906 253.675781 790.855469 254.027344 791.316406 254.40625 C 791.777344 254.785156 792.21875 255.183594 792.640625 255.605469 C 793.058594 256.027344 793.460938 256.464844 793.839844 256.925781 C 794.214844 257.386719 794.570312 257.863281 794.902344 258.359375 C 795.230469 258.855469 795.539062 259.367188 795.820312 259.890625 C 796.101562 260.414062 796.355469 260.953125 796.582031 261.503906 C 796.808594 262.054688 797.011719 262.613281 797.183594 263.183594 C 797.355469 263.753906 797.5 264.332031 797.617188 264.914062 C 797.734375 265.5 797.820312 266.085938 797.878906 266.679688 C 797.9375 267.273438 797.96875 267.867188 797.96875 268.460938 Z M 797.96875 268.460938 " fill-opacity="1" fill-rule="nonzero"/><g clip-path="url(#e4f9d24d51)"><path fill="#cecece" d="M 289.167969 765.84375 L 1145.15625 765.84375 L 1145.15625 809.640625 L 289.167969 809.640625 Z M 289.167969 765.84375 " fill-opacity="1" fill-rule="nonzero"/></g></svg>