<svg xmlns="http://www.w3.org/2000/svg" xmlns:xlink="http://www.w3.org/1999/xlink" width="500" zoomAndPan="magnify" viewBox="0 0 375 374.999991" height="500" preserveAspectRatio="xMidYMid meet" version="1.0"><defs><g/><clipPath id="14168e3955"><path d="M 16.722656 16.722656 L 357.972656 16.722656 L 357.972656 357.972656 L 16.722656 357.972656 Z M 16.722656 16.722656 " clip-rule="nonzero"/></clipPath><clipPath id="7823411de6"><path d="M 74.445312 45 L 280.675781 45 L 280.675781 216 L 74.445312 216 Z M 74.445312 45 " clip-rule="nonzero"/></clipPath><clipPath id="c52a514968"><path d="M 5.785156 5.785156 L 369.449219 5.785156 L 369.449219 369.449219 L 5.785156 369.449219 Z M 5.785156 5.785156 " clip-rule="nonzero"/></clipPath></defs><g clip-path="url(#14168e3955)"><path fill="#0d6efd" d="M 357.972656 187.347656 C 357.972656 190.140625 357.902344 192.929688 357.765625 195.71875 C 357.628906 198.507812 357.421875 201.292969 357.148438 204.070312 C 356.875 206.847656 356.535156 209.621094 356.125 212.382812 C 355.714844 215.144531 355.238281 217.894531 354.691406 220.632812 C 354.148438 223.371094 353.535156 226.097656 352.859375 228.804688 C 352.179688 231.511719 351.433594 234.203125 350.625 236.875 C 349.8125 239.546875 348.9375 242.199219 347.996094 244.828125 C 347.054688 247.457031 346.050781 250.0625 344.984375 252.640625 C 343.914062 255.222656 342.785156 257.773438 341.589844 260.296875 C 340.394531 262.820312 339.140625 265.316406 337.824219 267.777344 C 336.507812 270.242188 335.132812 272.671875 333.695312 275.066406 C 332.261719 277.460938 330.765625 279.820312 329.214844 282.140625 C 327.664062 284.460938 326.058594 286.746094 324.394531 288.988281 C 322.730469 291.230469 321.011719 293.429688 319.242188 295.589844 C 317.46875 297.75 315.644531 299.863281 313.769531 301.929688 C 311.894531 304 309.972656 306.023438 307.996094 307.996094 C 306.023438 309.972656 304 311.894531 301.929688 313.769531 C 299.863281 315.644531 297.75 317.46875 295.589844 319.242188 C 293.429688 321.011719 291.230469 322.730469 288.988281 324.394531 C 286.746094 326.058594 284.460938 327.664062 282.140625 329.214844 C 279.820312 330.765625 277.460938 332.261719 275.066406 333.695312 C 272.671875 335.132812 270.242188 336.507812 267.777344 337.824219 C 265.316406 339.140625 262.820312 340.394531 260.296875 341.589844 C 257.773438 342.785156 255.222656 343.914062 252.640625 344.984375 C 250.0625 346.050781 247.457031 347.054688 244.828125 347.996094 C 242.199219 348.9375 239.546875 349.8125 236.875 350.625 C 234.203125 351.433594 231.511719 352.179688 228.804688 352.859375 C 226.097656 353.535156 223.371094 354.148438 220.632812 354.691406 C 217.894531 355.238281 215.144531 355.714844 212.382812 356.125 C 209.621094 356.535156 206.847656 356.875 204.070312 357.148438 C 201.292969 357.421875 198.507812 357.628906 195.71875 357.765625 C 192.929688 357.902344 190.140625 357.972656 187.347656 357.972656 C 184.554688 357.972656 181.761719 357.902344 178.972656 357.765625 C 176.183594 357.628906 173.402344 357.421875 170.621094 357.148438 C 167.84375 356.875 165.074219 356.535156 162.308594 356.125 C 159.546875 355.714844 156.796875 355.238281 154.058594 354.691406 C 151.320312 354.148438 148.597656 353.535156 145.886719 352.859375 C 143.179688 352.179688 140.488281 351.433594 137.816406 350.625 C 135.144531 349.8125 132.492188 348.9375 129.863281 347.996094 C 127.234375 347.054688 124.628906 346.050781 122.050781 344.984375 C 119.472656 343.914062 116.917969 342.785156 114.394531 341.589844 C 111.871094 340.394531 109.378906 339.140625 106.914062 337.824219 C 104.453125 336.507812 102.023438 335.132812 99.628906 333.695312 C 97.234375 332.261719 94.875 330.765625 92.550781 329.214844 C 90.230469 327.664062 87.949219 326.058594 85.707031 324.394531 C 83.460938 322.730469 81.261719 321.011719 79.101562 319.242188 C 76.945312 317.46875 74.832031 315.644531 72.761719 313.769531 C 70.691406 311.894531 68.671875 309.972656 66.695312 307.996094 C 64.722656 306.023438 62.796875 304 60.921875 301.929688 C 59.046875 299.863281 57.222656 297.75 55.453125 295.589844 C 53.679688 293.429688 51.960938 291.230469 50.300781 288.988281 C 48.636719 286.746094 47.027344 284.460938 45.476562 282.140625 C 43.925781 279.820312 42.433594 277.460938 40.996094 275.066406 C 39.5625 272.671875 38.183594 270.242188 36.867188 267.777344 C 35.550781 265.316406 34.296875 262.820312 33.101562 260.296875 C 31.910156 257.773438 30.777344 255.222656 29.710938 252.640625 C 28.640625 250.0625 27.636719 247.457031 26.695312 244.828125 C 25.753906 242.199219 24.878906 239.546875 24.070312 236.875 C 23.257812 234.203125 22.511719 231.511719 21.835938 228.804688 C 21.15625 226.097656 20.542969 223.371094 20 220.632812 C 19.457031 217.894531 18.976562 215.144531 18.566406 212.382812 C 18.160156 209.621094 17.816406 206.847656 17.542969 204.070312 C 17.269531 201.292969 17.0625 198.507812 16.925781 195.71875 C 16.789062 192.929688 16.722656 190.140625 16.722656 187.347656 C 16.722656 184.554688 16.789062 181.761719 16.925781 178.972656 C 17.0625 176.183594 17.269531 173.402344 17.542969 170.621094 C 17.816406 167.84375 18.160156 165.074219 18.566406 162.308594 C 18.976562 159.546875 19.457031 156.796875 20 154.058594 C 20.542969 151.320312 21.15625 148.597656 21.835938 145.886719 C 22.511719 143.179688 23.257812 140.488281 24.070312 137.816406 C 24.878906 135.144531 25.753906 132.492188 26.695312 129.863281 C 27.636719 127.234375 28.640625 124.632812 29.710938 122.050781 C 30.777344 119.472656 31.910156 116.917969 33.101562 114.394531 C 34.296875 111.871094 35.550781 109.378906 36.867188 106.914062 C 38.183594 104.453125 39.5625 102.023438 40.996094 99.628906 C 42.433594 97.234375 43.925781 94.875 45.476562 92.550781 C 47.027344 90.230469 48.636719 87.949219 50.300781 85.707031 C 51.960938 83.460938 53.679688 81.261719 55.453125 79.101562 C 57.222656 76.945312 59.046875 74.832031 60.921875 72.761719 C 62.796875 70.691406 64.722656 68.671875 66.695312 66.695312 C 68.671875 64.722656 70.691406 62.796875 72.761719 60.921875 C 74.832031 59.046875 76.945312 57.222656 79.101562 55.453125 C 81.261719 53.679688 83.460938 51.960938 85.707031 50.300781 C 87.949219 48.636719 90.230469 47.027344 92.550781 45.476562 C 94.875 43.925781 97.234375 42.433594 99.628906 40.996094 C 102.023438 39.5625 104.453125 38.183594 106.914062 36.867188 C 109.378906 35.550781 111.871094 34.296875 114.394531 33.101562 C 116.917969 31.910156 119.472656 30.777344 122.050781 29.710938 C 124.632812 28.640625 127.234375 27.636719 129.863281 26.695312 C 132.492188 25.753906 135.144531 24.878906 137.816406 24.070312 C 140.488281 23.257812 143.179688 22.511719 145.886719 21.835938 C 148.597656 21.15625 151.320312 20.542969 154.058594 20 C 156.796875 19.457031 159.546875 18.976562 162.308594 18.566406 C 165.074219 18.160156 167.84375 17.816406 170.621094 17.542969 C 173.402344 17.269531 176.183594 17.0625 178.972656 16.925781 C 181.761719 16.789062 184.554688 16.722656 187.347656 16.722656 C 190.140625 16.722656 192.929688 16.789062 195.71875 16.925781 C 198.507812 17.0625 201.292969 17.269531 204.070312 17.542969 C 206.847656 17.816406 209.621094 18.160156 212.382812 18.566406 C 215.144531 18.976562 217.894531 19.457031 220.632812 20 C 223.371094 20.542969 226.097656 21.15625 228.804688 21.835938 C 231.511719 22.511719 234.203125 23.257812 236.875 24.070312 C 239.546875 24.878906 242.199219 25.753906 244.828125 26.695312 C 247.457031 27.636719 250.0625 28.640625 252.640625 29.710938 C 255.222656 30.777344 257.773438 31.910156 260.296875 33.101562 C 262.824219 34.296875 265.316406 35.550781 267.777344 36.867188 C 270.242188 38.183594 272.671875 39.5625 275.066406 40.996094 C 277.460938 42.433594 279.820312 43.925781 282.140625 45.476562 C 284.460938 47.027344 286.746094 48.636719 288.988281 50.300781 C 291.230469 51.960938 293.429688 53.679688 295.589844 55.453125 C 297.75 57.222656 299.863281 59.046875 301.929688 60.921875 C 304 62.796875 306.023438 64.722656 307.996094 66.695312 C 309.972656 68.671875 311.894531 70.691406 313.769531 72.761719 C 315.644531 74.832031 317.46875 76.945312 319.242188 79.101562 C 321.011719 81.261719 322.730469 83.460938 324.394531 85.707031 C 326.058594 87.949219 327.664062 90.230469 329.214844 92.550781 C 330.765625 94.875 332.261719 97.234375 333.695312 99.628906 C 335.132812 102.023438 336.507812 104.453125 337.824219 106.914062 C 339.140625 109.378906 340.394531 111.871094 341.589844 114.394531 C 342.785156 116.917969 343.914062 119.472656 344.984375 122.050781 C 346.050781 124.632812 347.054688 127.234375 347.996094 129.863281 C 348.9375 132.492188 349.8125 135.144531 350.625 137.816406 C 351.433594 140.488281 352.179688 143.179688 352.859375 145.886719 C 353.535156 148.597656 354.148438 151.320312 354.691406 154.058594 C 355.238281 156.796875 355.714844 159.546875 356.125 162.308594 C 356.535156 165.074219 356.875 167.84375 357.148438 170.621094 C 357.421875 173.402344 357.628906 176.183594 357.765625 178.972656 C 357.902344 181.761719 357.972656 184.554688 357.972656 187.347656 Z M 357.972656 187.347656 " fill-opacity="1" fill-rule="nonzero"/></g><g clip-path="url(#7823411de6)"><path fill="#000000" d="M 268.546875 157.523438 C 268.9375 157.46875 269.316406 157.367188 269.683594 157.230469 C 270.054688 157.089844 270.402344 156.914062 270.734375 156.699219 C 271.0625 156.484375 271.367188 156.238281 271.644531 155.960938 C 271.925781 155.679688 272.167969 155.375 272.382812 155.042969 C 272.59375 154.710938 272.769531 154.363281 272.90625 153.992188 C 273.042969 153.625 273.136719 153.246094 273.191406 152.855469 C 273.25 152.464844 273.261719 152.074219 273.234375 151.683594 C 273.203125 151.289062 273.132812 150.90625 273.023438 150.527344 C 272.910156 150.152344 272.761719 149.789062 272.570312 149.445312 C 272.382812 149.101562 272.160156 148.777344 271.902344 148.480469 C 271.640625 148.183594 271.355469 147.917969 271.039062 147.679688 C 270.726562 147.445312 270.386719 147.246094 270.027344 147.082031 C 269.671875 146.917969 269.300781 146.792969 268.914062 146.710938 C 268.527344 146.625 268.140625 146.582031 267.746094 146.582031 C 267.351562 146.582031 266.960938 146.621094 266.574219 146.707031 C 266.191406 146.789062 265.816406 146.910156 265.457031 147.074219 L 191.789062 169.078125 C 190.929688 169.386719 190.046875 169.605469 189.140625 169.738281 C 189.757812 167.128906 190.75 164.671875 192.121094 162.367188 L 260.164062 142.230469 C 260.742188 142.054688 261.277344 141.792969 261.769531 141.441406 C 262.261719 141.09375 262.6875 140.675781 263.042969 140.191406 C 263.402344 139.707031 263.671875 139.175781 263.859375 138.601562 C 264.046875 138.03125 264.136719 137.441406 264.136719 136.839844 L 262.703125 50.910156 C 262.664062 50.058594 262.441406 49.253906 262.035156 48.503906 C 261.628906 47.75 261.078125 47.121094 260.386719 46.621094 C 259.664062 46.066406 258.855469 45.710938 257.957031 45.554688 C 257.0625 45.398438 256.179688 45.460938 255.3125 45.742188 L 145.027344 78.746094 L 134 62.132812 C 133.425781 61.316406 132.683594 60.691406 131.78125 60.261719 C 130.878906 59.828125 129.925781 59.648438 128.925781 59.714844 L 109.078125 61.363281 C 108.714844 61.390625 108.359375 61.453125 108.007812 61.550781 C 107.65625 61.652344 107.320312 61.78125 106.996094 61.945312 C 106.671875 62.109375 106.367188 62.304688 106.082031 62.53125 C 105.796875 62.753906 105.535156 63.003906 105.300781 63.28125 C 105.066406 63.558594 104.859375 63.855469 104.679688 64.171875 C 104.503906 64.488281 104.359375 64.820312 104.25 65.164062 C 104.136719 65.507812 104.0625 65.863281 104.019531 66.222656 C 103.980469 66.582031 103.972656 66.945312 104.003906 67.304688 C 104.03125 67.664062 104.09375 68.019531 104.191406 68.363281 C 104.289062 68.710938 104.421875 69.046875 104.589844 69.367188 C 104.753906 69.6875 104.949219 69.988281 105.175781 70.269531 C 105.402344 70.550781 105.652344 70.804688 105.933594 71.035156 C 106.210938 71.265625 106.507812 71.46875 106.824219 71.640625 C 107.144531 71.808594 107.476562 71.949219 107.820312 72.054688 C 108.167969 72.15625 108.519531 72.226562 108.878906 72.261719 C 109.238281 72.296875 109.597656 72.292969 109.957031 72.257812 L 126.609375 70.714844 L 138.191406 87.878906 L 181.753906 157.636719 C 178.996094 162.804688 175.6875 171.167969 179.769531 176.558594 C 180.269531 177.230469 180.84375 177.824219 181.496094 178.351562 C 182.144531 178.875 182.851562 179.308594 183.613281 179.65625 C 184.375 180.003906 185.167969 180.25 185.992188 180.394531 C 186.816406 180.542969 187.644531 180.582031 188.480469 180.519531 C 190.609375 180.46875 192.703125 180.175781 194.765625 179.640625 Z M 251.78125 58.503906 L 252.777344 132.550781 L 190.6875 150.921875 L 151.425781 88.097656 Z M 205.242188 177.328125 C 204.628906 177.503906 204.019531 177.710938 203.425781 177.949219 C 202.828125 178.183594 202.246094 178.449219 201.675781 178.742188 C 201.105469 179.035156 200.554688 179.359375 200.015625 179.707031 C 199.476562 180.054688 198.960938 180.429688 198.457031 180.828125 C 197.957031 181.230469 197.480469 181.652344 197.019531 182.101562 C 196.5625 182.546875 196.125 183.015625 195.714844 183.507812 C 195.304688 183.996094 194.917969 184.507812 194.554688 185.035156 C 194.195312 185.5625 193.859375 186.109375 193.554688 186.671875 C 193.246094 187.234375 192.96875 187.808594 192.71875 188.398438 C 192.46875 188.984375 192.246094 189.585938 192.058594 190.199219 C 191.867188 190.808594 191.707031 191.425781 191.578125 192.054688 C 191.449219 192.679688 191.351562 193.3125 191.285156 193.949219 C 191.21875 194.585938 191.1875 195.222656 191.183594 195.863281 C 191.179688 196.503906 191.210938 197.140625 191.269531 197.777344 C 191.332031 198.414062 191.421875 199.046875 191.546875 199.675781 C 191.671875 200.300781 191.824219 200.921875 192.007812 201.535156 C 192.1875 202.152344 192.398438 202.757812 192.636719 203.355469 C 192.875 203.953125 193.144531 204.535156 193.4375 205.105469 C 193.734375 205.675781 194.058594 206.230469 194.410156 206.769531 C 194.761719 207.308594 195.140625 207.828125 195.542969 208.332031 C 195.945312 208.832031 196.371094 209.3125 196.820312 209.773438 C 197.269531 210.234375 197.742188 210.671875 198.234375 211.082031 C 198.726562 211.496094 199.238281 211.886719 199.769531 212.25 C 200.304688 212.613281 200.851562 212.949219 201.414062 213.257812 C 201.980469 213.566406 202.558594 213.847656 203.152344 214.101562 C 203.742188 214.351562 204.347656 214.578125 204.960938 214.769531 C 205.574219 214.960938 206.195312 215.125 206.828125 215.257812 C 207.457031 215.390625 208.09375 215.492188 208.734375 215.5625 C 209.375 215.632812 210.015625 215.667969 210.660156 215.675781 C 211.304688 215.683594 211.945312 215.65625 212.589844 215.601562 C 213.230469 215.546875 213.867188 215.457031 214.5 215.339844 C 215.132812 215.21875 215.757812 215.070312 216.378906 214.890625 C 216.996094 214.710938 217.605469 214.5 218.203125 214.257812 C 218.800781 214.019531 219.382812 213.75 219.953125 213.453125 C 220.523438 213.15625 221.078125 212.828125 221.617188 212.476562 C 222.15625 212.125 222.679688 211.75 223.179688 211.34375 C 223.679688 210.941406 224.164062 210.515625 224.621094 210.066406 C 225.082031 209.613281 225.519531 209.144531 225.929688 208.648438 C 226.34375 208.15625 226.730469 207.644531 227.09375 207.113281 C 227.457031 206.582031 227.792969 206.035156 228.101562 205.46875 C 228.410156 204.90625 228.6875 204.328125 228.941406 203.738281 C 229.191406 203.144531 229.414062 202.542969 229.605469 201.929688 C 229.796875 201.316406 229.957031 200.695312 230.089844 200.066406 C 230.21875 199.4375 230.320312 198.800781 230.386719 198.164062 C 230.457031 197.523438 230.492188 196.882812 230.496094 196.242188 C 230.5 195.597656 230.476562 194.957031 230.417969 194.316406 C 230.359375 193.675781 230.269531 193.039062 230.148438 192.410156 C 230.027344 191.777344 229.875 191.15625 229.691406 190.539062 C 229.507812 189.921875 229.296875 189.316406 229.054688 188.722656 C 228.8125 188.125 228.539062 187.542969 228.238281 186.976562 C 227.941406 186.40625 227.613281 185.855469 227.257812 185.316406 C 226.902344 184.78125 226.523438 184.261719 226.117188 183.761719 C 225.714844 183.265625 225.285156 182.785156 224.832031 182.328125 C 224.378906 181.871094 223.90625 181.4375 223.410156 181.027344 C 222.914062 180.617188 222.398438 180.230469 221.867188 179.871094 C 221.332031 179.511719 220.78125 179.179688 220.214844 178.871094 C 219.648438 178.566406 219.070312 178.289062 218.476562 178.039062 C 217.882812 177.789062 217.277344 177.570312 216.660156 177.382812 C 216.046875 177.191406 215.421875 177.03125 214.792969 176.902344 C 214.160156 176.773438 213.523438 176.679688 212.882812 176.613281 C 212.242188 176.546875 211.601562 176.511719 210.957031 176.507812 C 210.3125 176.503906 209.667969 176.535156 209.027344 176.59375 C 208.386719 176.65625 207.75 176.746094 207.117188 176.867188 C 206.484375 176.992188 205.859375 177.144531 205.242188 177.328125 Z M 213.183594 204.175781 C 212.632812 204.371094 212.070312 204.507812 211.492188 204.585938 C 210.914062 204.664062 210.335938 204.683594 209.753906 204.644531 C 209.171875 204.605469 208.601562 204.503906 208.039062 204.347656 C 207.476562 204.191406 206.9375 203.976562 206.421875 203.710938 C 205.902344 203.441406 205.417969 203.121094 204.96875 202.753906 C 204.515625 202.386719 204.105469 201.976562 203.738281 201.523438 C 203.375 201.074219 203.054688 200.585938 202.789062 200.070312 C 202.523438 199.554688 202.3125 199.015625 202.15625 198.453125 C 201.976562 197.90625 201.851562 197.34375 201.785156 196.769531 C 201.71875 196.195312 201.710938 195.621094 201.757812 195.046875 C 201.804688 194.472656 201.910156 193.90625 202.070312 193.351562 C 202.230469 192.796875 202.441406 192.265625 202.710938 191.753906 C 202.976562 191.242188 203.292969 190.761719 203.65625 190.308594 C 204.019531 189.859375 204.421875 189.453125 204.867188 189.082031 C 205.3125 188.710938 205.789062 188.390625 206.296875 188.117188 C 206.804688 187.84375 207.335938 187.621094 207.890625 187.453125 C 208.699219 187.34375 209.507812 187.34375 210.316406 187.453125 C 210.816406 187.46875 211.3125 187.527344 211.804688 187.628906 C 212.292969 187.730469 212.773438 187.875 213.238281 188.0625 C 213.703125 188.25 214.148438 188.472656 214.574219 188.738281 C 215 189 215.398438 189.300781 215.773438 189.632812 C 216.144531 189.964844 216.488281 190.328125 216.796875 190.722656 C 217.105469 191.113281 217.378906 191.53125 217.617188 191.972656 C 217.855469 192.414062 218.050781 192.871094 218.207031 193.34375 C 218.363281 193.820312 218.480469 194.304688 218.550781 194.800781 C 218.621094 195.292969 218.652344 195.792969 218.636719 196.292969 C 218.621094 196.789062 218.5625 197.285156 218.460938 197.773438 C 218.355469 198.265625 218.214844 198.742188 218.027344 199.207031 C 217.84375 199.671875 217.617188 200.113281 217.355469 200.539062 C 217.089844 200.964844 216.792969 201.363281 216.460938 201.738281 C 216.125 202.113281 215.761719 202.453125 215.371094 202.761719 C 214.976562 203.074219 214.558594 203.347656 214.117188 203.582031 C 213.675781 203.820312 213.21875 204.019531 212.742188 204.175781 Z M 279.355469 175.679688 C 279.007812 174.441406 278.539062 173.25 277.953125 172.109375 C 277.363281 170.964844 276.667969 169.894531 275.863281 168.890625 C 275.058594 167.890625 274.160156 166.976562 273.167969 166.15625 C 272.179688 165.335938 271.113281 164.621094 269.980469 164.015625 C 267.730469 162.816406 265.339844 162.074219 262.804688 161.789062 C 260.269531 161.503906 257.773438 161.695312 255.3125 162.367188 C 254.074219 162.730469 252.882812 163.214844 251.742188 163.816406 C 250.597656 164.417969 249.523438 165.121094 248.523438 165.933594 C 247.519531 166.746094 246.605469 167.648438 245.78125 168.640625 C 244.957031 169.632812 244.238281 170.695312 243.621094 171.828125 C 242.996094 172.949219 242.488281 174.121094 242.101562 175.34375 C 241.710938 176.570312 241.453125 177.820312 241.320312 179.097656 C 241.1875 180.375 241.183594 181.648438 241.3125 182.925781 C 241.441406 184.203125 241.695312 185.457031 242.078125 186.679688 C 242.265625 187.289062 242.480469 187.890625 242.722656 188.476562 C 242.96875 189.066406 243.242188 189.640625 243.542969 190.203125 C 243.839844 190.765625 244.167969 191.308594 244.523438 191.839844 C 244.875 192.371094 245.253906 192.882812 245.65625 193.375 C 246.058594 193.871094 246.488281 194.34375 246.9375 194.796875 C 247.386719 195.246094 247.855469 195.675781 248.347656 196.085938 C 248.835938 196.492188 249.347656 196.875 249.875 197.230469 C 250.402344 197.589844 250.945312 197.921875 251.507812 198.226562 C 252.066406 198.53125 252.640625 198.808594 253.230469 199.054688 C 253.816406 199.304688 254.414062 199.527344 255.023438 199.71875 C 255.632812 199.910156 256.25 200.070312 256.871094 200.203125 C 257.496094 200.335938 258.125 200.4375 258.761719 200.507812 C 259.394531 200.578125 260.03125 200.617188 260.667969 200.628906 C 261.308594 200.636719 261.945312 200.617188 262.582031 200.5625 C 263.21875 200.511719 263.847656 200.429688 264.476562 200.316406 C 265.105469 200.203125 265.726562 200.058594 266.339844 199.882812 C 268.722656 199.078125 270.871094 197.859375 272.777344 196.222656 C 274.683594 194.585938 276.214844 192.652344 277.367188 190.421875 C 278.050781 189.324219 278.613281 188.167969 279.058594 186.957031 C 279.503906 185.746094 279.820312 184.5 280.011719 183.222656 C 280.203125 181.945312 280.257812 180.664062 280.1875 179.375 C 280.113281 178.085938 279.910156 176.816406 279.574219 175.570312 Z M 268.324219 185.25 C 267.804688 186.269531 267.105469 187.140625 266.222656 187.867188 C 265.34375 188.59375 264.351562 189.113281 263.253906 189.433594 C 262.699219 189.617188 262.132812 189.746094 261.554688 189.816406 C 260.972656 189.886719 260.394531 189.898438 259.8125 189.851562 C 259.230469 189.804688 258.65625 189.699219 258.097656 189.535156 C 257.535156 189.371094 257 189.152344 256.484375 188.878906 C 255.964844 188.609375 255.484375 188.285156 255.035156 187.914062 C 254.582031 187.542969 254.175781 187.132812 253.808594 186.675781 C 253.441406 186.222656 253.125 185.738281 252.859375 185.21875 C 252.59375 184.703125 252.382812 184.160156 252.222656 183.601562 C 252.027344 183.050781 251.890625 182.488281 251.8125 181.914062 C 251.734375 181.335938 251.714844 180.757812 251.753906 180.179688 C 251.792969 179.597656 251.894531 179.027344 252.050781 178.46875 C 252.207031 177.910156 252.421875 177.371094 252.691406 176.855469 C 252.960938 176.339844 253.28125 175.855469 253.648438 175.402344 C 254.015625 174.953125 254.429688 174.546875 254.882812 174.179688 C 255.335938 173.8125 255.820312 173.496094 256.339844 173.230469 C 256.855469 172.964844 257.398438 172.753906 257.960938 172.597656 C 258.769531 172.492188 259.578125 172.492188 260.386719 172.597656 C 261.828125 172.585938 263.1875 172.917969 264.464844 173.589844 C 265.46875 174.125 266.332031 174.832031 267.058594 175.710938 C 267.785156 176.585938 268.316406 177.566406 268.65625 178.648438 C 269.011719 179.714844 269.164062 180.804688 269.105469 181.925781 C 269.046875 183.046875 268.789062 184.117188 268.324219 185.140625 Z M 102.898438 137.71875 C 102.898438 137.359375 102.9375 137 103.007812 136.648438 C 103.078125 136.292969 103.179688 135.949219 103.320312 135.617188 C 103.457031 135.28125 103.628906 134.964844 103.828125 134.664062 C 104.03125 134.363281 104.257812 134.085938 104.515625 133.832031 C 104.769531 133.574219 105.050781 133.347656 105.351562 133.144531 C 105.652344 132.945312 105.96875 132.777344 106.304688 132.636719 C 106.640625 132.5 106.984375 132.394531 107.339844 132.324219 C 107.695312 132.253906 108.050781 132.21875 108.414062 132.21875 L 144.144531 132.21875 C 144.507812 132.21875 144.867188 132.253906 145.222656 132.324219 C 145.578125 132.394531 145.921875 132.5 146.257812 132.636719 C 146.589844 132.777344 146.910156 132.945312 147.210938 133.144531 C 147.511719 133.347656 147.789062 133.574219 148.046875 133.832031 C 148.300781 134.085938 148.53125 134.363281 148.730469 134.664062 C 148.933594 134.964844 149.101562 135.28125 149.242188 135.617188 C 149.378906 135.949219 149.484375 136.292969 149.554688 136.648438 C 149.625 137 149.660156 137.359375 149.660156 137.71875 C 149.660156 138.082031 149.625 138.441406 149.554688 138.792969 C 149.484375 139.148438 149.378906 139.492188 149.242188 139.824219 C 149.101562 140.160156 148.933594 140.476562 148.730469 140.777344 C 148.53125 141.078125 148.300781 141.355469 148.046875 141.609375 C 147.789062 141.867188 147.511719 142.09375 147.210938 142.292969 C 146.910156 142.496094 146.589844 142.664062 146.257812 142.804688 C 145.921875 142.941406 145.578125 143.046875 145.222656 143.117188 C 144.867188 143.1875 144.507812 143.222656 144.144531 143.222656 L 107.863281 143.222656 C 107.496094 143.222656 107.132812 143.1875 106.773438 143.113281 C 106.414062 143.042969 106.066406 142.933594 105.726562 142.792969 C 105.390625 142.652344 105.066406 142.476562 104.765625 142.273438 C 104.460938 142.066406 104.179688 141.832031 103.925781 141.570312 C 103.667969 141.308594 103.4375 141.027344 103.238281 140.71875 C 103.039062 140.414062 102.871094 140.089844 102.738281 139.75 C 102.601562 139.410156 102.5 139.058594 102.4375 138.699219 C 102.371094 138.339844 102.339844 137.976562 102.347656 137.609375 Z M 170.0625 157.964844 C 170.0625 158.328125 170.027344 158.683594 169.957031 159.039062 C 169.886719 159.390625 169.78125 159.738281 169.644531 160.070312 C 169.503906 160.402344 169.335938 160.722656 169.132812 161.019531 C 168.933594 161.320312 168.703125 161.597656 168.449219 161.855469 C 168.191406 162.109375 167.914062 162.339844 167.613281 162.539062 C 167.3125 162.738281 166.992188 162.910156 166.660156 163.046875 C 166.324219 163.1875 165.980469 163.289062 165.625 163.359375 C 165.269531 163.429688 164.910156 163.464844 164.550781 163.464844 L 80.070312 163.464844 C 79.710938 163.464844 79.351562 163.429688 78.996094 163.359375 C 78.640625 163.289062 78.296875 163.1875 77.960938 163.046875 C 77.625 162.910156 77.308594 162.738281 77.007812 162.539062 C 76.707031 162.339844 76.429688 162.109375 76.171875 161.855469 C 75.917969 161.597656 75.6875 161.320312 75.488281 161.019531 C 75.285156 160.722656 75.117188 160.402344 74.976562 160.070312 C 74.839844 159.738281 74.734375 159.390625 74.664062 159.039062 C 74.59375 158.683594 74.558594 158.328125 74.558594 157.964844 C 74.558594 157.605469 74.59375 157.246094 74.664062 156.890625 C 74.734375 156.539062 74.839844 156.195312 74.976562 155.859375 C 75.117188 155.527344 75.285156 155.207031 75.488281 154.910156 C 75.6875 154.609375 75.917969 154.332031 76.171875 154.074219 C 76.429688 153.820312 76.707031 153.589844 77.007812 153.390625 C 77.308594 153.191406 77.625 153.019531 77.960938 152.882812 C 78.296875 152.746094 78.640625 152.640625 78.996094 152.570312 C 79.351562 152.5 79.710938 152.464844 80.070312 152.464844 L 163.996094 152.464844 C 164.355469 152.464844 164.710938 152.496094 165.058594 152.566406 C 165.410156 152.636719 165.75 152.738281 166.082031 152.871094 C 166.414062 153.007812 166.726562 153.171875 167.027344 153.367188 C 167.324219 153.5625 167.601562 153.785156 167.859375 154.035156 C 168.113281 154.285156 168.34375 154.558594 168.542969 154.851562 C 168.746094 155.144531 168.917969 155.457031 169.0625 155.785156 C 169.203125 156.109375 169.3125 156.449219 169.386719 156.796875 C 169.464844 157.144531 169.503906 157.5 169.511719 157.855469 Z M 149.660156 178.210938 C 149.660156 178.570312 149.625 178.929688 149.554688 179.28125 C 149.484375 179.636719 149.378906 179.980469 149.242188 180.316406 C 149.101562 180.648438 148.933594 180.964844 148.730469 181.265625 C 148.53125 181.566406 148.300781 181.84375 148.046875 182.097656 C 147.789062 182.355469 147.511719 182.582031 147.210938 182.785156 C 146.910156 182.984375 146.589844 183.152344 146.257812 183.292969 C 145.921875 183.429688 145.578125 183.535156 145.222656 183.605469 C 144.867188 183.675781 144.507812 183.710938 144.144531 183.710938 L 118.449219 183.710938 C 118.089844 183.710938 117.730469 183.675781 117.375 183.605469 C 117.019531 183.535156 116.675781 183.429688 116.339844 183.292969 C 116.003906 183.152344 115.6875 182.984375 115.386719 182.785156 C 115.085938 182.582031 114.808594 182.355469 114.550781 182.097656 C 114.296875 181.84375 114.066406 181.566406 113.867188 181.265625 C 113.664062 180.964844 113.496094 180.648438 113.355469 180.316406 C 113.21875 179.980469 113.113281 179.636719 113.042969 179.28125 C 112.972656 178.929688 112.9375 178.570312 112.9375 178.210938 C 112.9375 177.847656 112.972656 177.492188 113.042969 177.136719 C 113.113281 176.78125 113.21875 176.4375 113.355469 176.105469 C 113.496094 175.769531 113.664062 175.453125 113.867188 175.152344 C 114.066406 174.851562 114.296875 174.574219 114.550781 174.320312 C 114.808594 174.0625 115.085938 173.835938 115.386719 173.636719 C 115.6875 173.433594 116.003906 173.265625 116.339844 173.125 C 116.675781 172.988281 117.019531 172.882812 117.375 172.8125 C 117.730469 172.742188 118.089844 172.707031 118.449219 172.707031 L 143.59375 172.707031 C 143.953125 172.707031 144.304688 172.742188 144.65625 172.8125 C 145.007812 172.878906 145.347656 172.980469 145.679688 173.117188 C 146.011719 173.25 146.324219 173.417969 146.625 173.613281 C 146.921875 173.808594 147.199219 174.03125 147.457031 174.28125 C 147.710938 174.53125 147.941406 174.800781 148.140625 175.097656 C 148.34375 175.390625 148.515625 175.699219 148.65625 176.027344 C 148.800781 176.355469 148.910156 176.691406 148.984375 177.042969 C 149.058594 177.390625 149.101562 177.742188 149.109375 178.097656 Z M 149.660156 178.210938 " fill-opacity="1" fill-rule="nonzero"/></g><g clip-path="url(#c52a514968)"><path fill="#000000" d="M 187.617188 369.449219 C 87.160156 369.449219 5.785156 287.511719 5.785156 187.617188 C 5.785156 87.722656 87.160156 5.785156 187.617188 5.785156 C 288.074219 5.785156 369.449219 87.160156 369.449219 187.617188 C 369.449219 288.074219 287.511719 369.449219 187.617188 369.449219 Z M 187.617188 17.007812 C 93.332031 17.007812 17.007812 93.332031 17.007812 187.617188 C 17.007812 281.902344 93.332031 358.226562 187.617188 358.226562 C 281.902344 358.226562 358.226562 281.902344 358.226562 187.617188 C 358.226562 93.332031 281.339844 17.007812 187.617188 17.007812 Z M 187.617188 17.007812 " fill-opacity="1" fill-rule="nonzero"/></g><g fill="#000000" fill-opacity="1"><g transform="translate(62.239112, 285.17398)"><g><path d="M 32.109375 -61.921875 C 39.890625 -61.921875 46.285156 -60.34375 51.296875 -57.1875 C 56.316406 -54.03125 58.882812 -49.359375 59 -43.171875 L 59 -42.109375 L 40.6875 -42.109375 L 40.6875 -42.453125 C 40.6875 -44.222656 40.035156 -45.695312 38.734375 -46.875 C 37.441406 -48.0625 35.46875 -48.65625 32.8125 -48.65625 C 30.21875 -48.65625 28.226562 -48.269531 26.84375 -47.5 C 25.457031 -46.726562 24.765625 -45.785156 24.765625 -44.671875 C 24.765625 -43.078125 25.707031 -41.894531 27.59375 -41.125 C 29.476562 -40.363281 32.515625 -39.570312 36.703125 -38.75 C 41.597656 -37.738281 45.625 -36.6875 48.78125 -35.59375 C 51.9375 -34.507812 54.691406 -32.726562 57.046875 -30.25 C 59.410156 -27.769531 60.617188 -24.410156 60.671875 -20.171875 C 60.671875 -12.972656 58.238281 -7.632812 53.375 -4.15625 C 48.507812 -0.675781 42.007812 1.0625 33.875 1.0625 C 24.382812 1.0625 17 -0.523438 11.71875 -3.703125 C 6.4375 -6.890625 3.796875 -12.523438 3.796875 -20.609375 L 22.296875 -20.609375 C 22.296875 -17.546875 23.085938 -15.5 24.671875 -14.46875 C 26.265625 -13.4375 28.742188 -12.921875 32.109375 -12.921875 C 34.585938 -12.921875 36.632812 -13.179688 38.25 -13.703125 C 39.875 -14.234375 40.6875 -15.328125 40.6875 -16.984375 C 40.6875 -18.453125 39.785156 -19.554688 37.984375 -20.296875 C 36.191406 -21.035156 33.257812 -21.816406 29.1875 -22.640625 C 24.238281 -23.703125 20.140625 -24.804688 16.890625 -25.953125 C 13.648438 -27.109375 10.820312 -29.007812 8.40625 -31.65625 C 5.988281 -34.3125 4.78125 -37.910156 4.78125 -42.453125 C 4.78125 -49.117188 7.359375 -54.03125 12.515625 -57.1875 C 17.671875 -60.34375 24.203125 -61.921875 32.109375 -61.921875 Z M 32.109375 -61.921875 "/></g></g></g><g fill="#000000" fill-opacity="1"><g transform="translate(126.095623, 285.17398)"><g/></g></g><g fill="#000000" fill-opacity="1"><g transform="translate(155.547441, 285.17398)"><g><path d="M 32.109375 -61.921875 C 39.890625 -61.921875 46.285156 -60.34375 51.296875 -57.1875 C 56.316406 -54.03125 58.882812 -49.359375 59 -43.171875 L 59 -42.109375 L 40.6875 -42.109375 L 40.6875 -42.453125 C 40.6875 -44.222656 40.035156 -45.695312 38.734375 -46.875 C 37.441406 -48.0625 35.46875 -48.65625 32.8125 -48.65625 C 30.21875 -48.65625 28.226562 -48.269531 26.84375 -47.5 C 25.457031 -46.726562 24.765625 -45.785156 24.765625 -44.671875 C 24.765625 -43.078125 25.707031 -41.894531 27.59375 -41.125 C 29.476562 -40.363281 32.515625 -39.570312 36.703125 -38.75 C 41.597656 -37.738281 45.625 -36.6875 48.78125 -35.59375 C 51.9375 -34.507812 54.691406 -32.726562 57.046875 -30.25 C 59.410156 -27.769531 60.617188 -24.410156 60.671875 -20.171875 C 60.671875 -12.972656 58.238281 -7.632812 53.375 -4.15625 C 48.507812 -0.675781 42.007812 1.0625 33.875 1.0625 C 24.382812 1.0625 17 -0.523438 11.71875 -3.703125 C 6.4375 -6.890625 3.796875 -12.523438 3.796875 -20.609375 L 22.296875 -20.609375 C 22.296875 -17.546875 23.085938 -15.5 24.671875 -14.46875 C 26.265625 -13.4375 28.742188 -12.921875 32.109375 -12.921875 C 34.585938 -12.921875 36.632812 -13.179688 38.25 -13.703125 C 39.875 -14.234375 40.6875 -15.328125 40.6875 -16.984375 C 40.6875 -18.453125 39.785156 -19.554688 37.984375 -20.296875 C 36.191406 -21.035156 33.257812 -21.816406 29.1875 -22.640625 C 24.238281 -23.703125 20.140625 -24.804688 16.890625 -25.953125 C 13.648438 -27.109375 10.820312 -29.007812 8.40625 -31.65625 C 5.988281 -34.3125 4.78125 -37.910156 4.78125 -42.453125 C 4.78125 -49.117188 7.359375 -54.03125 12.515625 -57.1875 C 17.671875 -60.34375 24.203125 -61.921875 32.109375 -61.921875 Z M 32.109375 -61.921875 "/></g></g></g><g fill="#000000" fill-opacity="1"><g transform="translate(219.403952, 285.17398)"><g/></g></g><g fill="#000000" fill-opacity="1"><g transform="translate(248.85577, 285.17398)"><g><path d="M 32.109375 -61.921875 C 39.890625 -61.921875 46.285156 -60.34375 51.296875 -57.1875 C 56.316406 -54.03125 58.882812 -49.359375 59 -43.171875 L 59 -42.109375 L 40.6875 -42.109375 L 40.6875 -42.453125 C 40.6875 -44.222656 40.035156 -45.695312 38.734375 -46.875 C 37.441406 -48.0625 35.46875 -48.65625 32.8125 -48.65625 C 30.21875 -48.65625 28.226562 -48.269531 26.84375 -47.5 C 25.457031 -46.726562 24.765625 -45.785156 24.765625 -44.671875 C 24.765625 -43.078125 25.707031 -41.894531 27.59375 -41.125 C 29.476562 -40.363281 32.515625 -39.570312 36.703125 -38.75 C 41.597656 -37.738281 45.625 -36.6875 48.78125 -35.59375 C 51.9375 -34.507812 54.691406 -32.726562 57.046875 -30.25 C 59.410156 -27.769531 60.617188 -24.410156 60.671875 -20.171875 C 60.671875 -12.972656 58.238281 -7.632812 53.375 -4.15625 C 48.507812 -0.675781 42.007812 1.0625 33.875 1.0625 C 24.382812 1.0625 17 -0.523438 11.71875 -3.703125 C 6.4375 -6.890625 3.796875 -12.523438 3.796875 -20.609375 L 22.296875 -20.609375 C 22.296875 -17.546875 23.085938 -15.5 24.671875 -14.46875 C 26.265625 -13.4375 28.742188 -12.921875 32.109375 -12.921875 C 34.585938 -12.921875 36.632812 -13.179688 38.25 -13.703125 C 39.875 -14.234375 40.6875 -15.328125 40.6875 -16.984375 C 40.6875 -18.453125 39.785156 -19.554688 37.984375 -20.296875 C 36.191406 -21.035156 33.257812 -21.816406 29.1875 -22.640625 C 24.238281 -23.703125 20.140625 -24.804688 16.890625 -25.953125 C 13.648438 -27.109375 10.820312 -29.007812 8.40625 -31.65625 C 5.988281 -34.3125 4.78125 -37.910156 4.78125 -42.453125 C 4.78125 -49.117188 7.359375 -54.03125 12.515625 -57.1875 C 17.671875 -60.34375 24.203125 -61.921875 32.109375 -61.921875 Z M 32.109375 -61.921875 "/></g></g></g></svg>