<svg xmlns="http://www.w3.org/2000/svg" xmlns:xlink="http://www.w3.org/1999/xlink" width="500" zoomAndPan="magnify" viewBox="0 0 375 374.999991" height="500" preserveAspectRatio="xMidYMid meet" version="1.0"><defs><clipPath id="30c6b77044"><path d="M 11.628906 15.320312 L 307.453125 15.320312 L 307.453125 311.144531 L 11.628906 311.144531 Z M 11.628906 15.320312 " clip-rule="nonzero"/></clipPath><clipPath id="cad6f0bf15"><path d="M 68.507812 78.222656 L 363 78.222656 L 363 360.285156 L 68.507812 360.285156 Z M 68.507812 78.222656 " clip-rule="nonzero"/></clipPath></defs><g clip-path="url(#30c6b77044)"><path fill="#7bbded" d="M 298.726562 157.019531 L 165.679688 23.972656 C 160.28125 18.648438 152.886719 15.320312 144.75 15.320312 L 41.210938 15.320312 C 24.867188 15.320312 11.628906 28.558594 11.628906 44.902344 L 11.628906 148.441406 C 11.628906 156.652344 14.957031 164.046875 20.355469 169.371094 L 153.476562 302.492188 C 158.804688 307.816406 166.199219 311.144531 174.332031 311.144531 C 182.46875 311.144531 189.9375 307.816406 195.261719 302.492188 L 298.800781 198.953125 C 304.128906 193.554688 307.453125 186.160156 307.453125 178.023438 C 307.453125 169.816406 304.128906 162.417969 298.726562 157.019531 Z M 63.398438 89.277344 C 51.121094 89.277344 41.210938 79.367188 41.210938 67.089844 C 41.210938 54.8125 51.121094 44.902344 63.398438 44.902344 C 75.675781 44.902344 85.585938 54.8125 85.585938 67.089844 C 85.585938 79.367188 75.675781 89.277344 63.398438 89.277344 Z M 63.398438 89.277344 " fill-opacity="1" fill-rule="nonzero"/></g><g clip-path="url(#cad6f0bf15)"><path fill="#231f20" d="M 76.511719 78.292969 C 76.96875 78.300781 77.433594 78.339844 77.882812 78.421875 C 77.890625 78.421875 77.898438 78.417969 77.90625 78.421875 L 123.054688 86.125 C 125.929688 86.617188 128.335938 88.582031 129.398438 91.292969 C 129.398438 91.300781 129.398438 91.308594 129.398438 91.316406 L 150.347656 144.980469 L 354.816406 150.074219 C 357.167969 150.132812 359.375 151.191406 360.90625 152.960938 C 362.433594 154.730469 363.167969 157.082031 362.882812 159.421875 L 351.597656 252.683594 C 351.128906 256.597656 347.894531 259.699219 343.960938 260.007812 L 198.191406 271.585938 L 169.300781 294.289062 C 169.269531 294.3125 169.234375 294.339844 169.199219 294.363281 C 169.171875 294.382812 169.132812 294.394531 169.097656 294.414062 C 169.0625 294.4375 169.035156 294.464844 168.996094 294.488281 C 163.726562 298.421875 162.417969 303.777344 163.164062 306.753906 C 163.589844 308.449219 164.238281 309.695312 165.777344 310.652344 C 167.316406 311.613281 169.976562 312.308594 174.527344 312.046875 C 174.542969 312.046875 174.5625 312.046875 174.578125 312.046875 C 174.722656 312.042969 174.890625 312.042969 175.035156 312.046875 C 175.058594 312.046875 175.085938 312.046875 175.113281 312.046875 L 348.964844 312.554688 L 348.988281 312.554688 C 353.558594 312.527344 357.402344 316.351562 357.382812 320.914062 C 357.367188 325.476562 353.507812 329.292969 348.9375 329.226562 L 348.914062 329.226562 L 336.203125 329.199219 C 340.925781 332.207031 344.09375 337.464844 344.09375 343.441406 C 344.09375 352.730469 336.476562 360.339844 327.175781 360.339844 C 317.875 360.339844 310.257812 352.730469 310.257812 343.441406 C 310.257812 337.433594 313.429688 332.121094 318.195312 329.125 L 175.035156 328.71875 C 180.191406 331.625 183.707031 337.136719 183.707031 343.441406 C 183.707031 352.730469 176.089844 360.339844 166.789062 360.339844 C 157.488281 360.339844 149.871094 352.730469 149.871094 343.441406 C 149.871094 335.371094 155.609375 328.570312 163.214844 326.921875 C 156.023438 324.378906 150.5 319.140625 147.082031 311.136719 C 147.03125 311.039062 146.988281 310.9375 146.953125 310.832031 C 144.332031 300.359375 148.984375 288.972656 158.570312 281.566406 C 158.597656 281.542969 158.621094 281.515625 158.648438 281.492188 C 158.671875 281.472656 158.675781 281.433594 158.699219 281.417969 C 158.78125 281.316406 158.875 281.222656 158.976562 281.136719 L 179.445312 265.101562 L 115.605469 101.753906 L 75.097656 94.863281 C 75.089844 94.863281 75.078125 94.863281 75.070312 94.863281 C 70.816406 94.179688 67.703125 90.21875 68.070312 85.917969 C 68.4375 81.613281 72.195312 78.234375 76.515625 78.292969 Z M 156.511719 157.851562 L 168.28125 188.003906 L 183.628906 188.003906 L 183.628906 158.535156 Z M 189.488281 158.6875 L 189.488281 188.003906 L 217.820312 188.003906 L 217.820312 159.398438 Z M 223.679688 159.523438 L 223.679688 188.003906 L 252.011719 188.003906 L 252.011719 160.234375 Z M 257.871094 160.386719 L 257.871094 188.003906 L 286.203125 188.003906 L 286.203125 161.09375 Z M 292.0625 161.246094 L 292.0625 188.003906 L 320.394531 188.003906 L 320.394531 161.957031 Z M 326.253906 162.082031 L 326.253906 188.003906 L 347.027344 188.003906 L 350.097656 162.691406 Z M 346.316406 193.828125 L 326.253906 193.828125 L 326.253906 220.304688 L 343.121094 220.304688 Z M 320.394531 193.828125 L 292.0625 193.828125 L 292.0625 220.304688 L 320.394531 220.304688 Z M 286.203125 193.828125 L 257.871094 193.828125 L 257.871094 220.304688 L 286.203125 220.304688 Z M 252.011719 193.828125 L 223.679688 193.828125 L 223.679688 220.304688 L 252.011719 220.304688 Z M 217.820312 193.828125 L 189.488281 193.828125 L 189.488281 220.304688 L 217.820312 220.304688 Z M 183.628906 193.828125 L 170.539062 193.828125 L 180.886719 220.304688 L 183.628906 220.304688 Z M 342.40625 226.132812 L 326.25 226.132812 L 326.25 245.136719 L 340.25 244.019531 Z M 320.390625 226.132812 L 292.058594 226.132812 L 292.058594 247.847656 L 320.390625 245.589844 Z M 286.199219 226.132812 L 257.867188 226.132812 L 257.867188 250.558594 L 286.199219 248.328125 Z M 252.007812 226.132812 L 223.675781 226.132812 L 223.675781 253.292969 L 252.007812 251.039062 Z M 217.816406 226.132812 L 189.484375 226.132812 L 189.484375 242.246094 L 194.859375 256.003906 C 195.558594 255.667969 196.320312 255.460938 197.09375 255.398438 L 217.816406 253.75 Z M 183.625 226.132812 L 183.191406 226.132812 L 183.625 227.324219 Z M 327.160156 333.511719 C 321.628906 333.511719 317.214844 337.921875 317.214844 343.441406 C 317.214844 348.964844 321.628906 353.347656 327.160156 353.347656 C 332.6875 353.347656 337.101562 348.964844 337.101562 343.441406 C 337.101562 337.921875 332.6875 333.511719 327.160156 333.511719 Z M 166.78125 333.511719 C 161.253906 333.511719 156.839844 337.921875 156.839844 343.441406 C 156.839844 348.964844 161.253906 353.347656 166.78125 353.347656 C 172.308594 353.347656 176.722656 348.964844 176.722656 343.441406 C 176.722656 337.921875 172.308594 333.511719 166.78125 333.511719 Z M 327.160156 338.222656 C 330.164062 338.222656 332.5625 340.621094 332.5625 343.621094 C 332.5625 346.621094 330.164062 348.992188 327.160156 348.992188 C 324.15625 348.992188 321.757812 346.621094 321.757812 343.621094 C 321.757812 340.621094 324.15625 338.222656 327.160156 338.222656 Z M 166.78125 338.222656 C 169.785156 338.222656 172.183594 340.621094 172.183594 343.621094 C 172.183594 346.621094 169.785156 348.992188 166.78125 348.992188 C 163.777344 348.992188 161.378906 346.621094 161.378906 343.621094 C 161.378906 340.621094 163.777344 338.222656 166.78125 338.222656 Z M 166.78125 338.222656 " fill-opacity="1" fill-rule="nonzero"/></g></svg>