<svg xmlns="http://www.w3.org/2000/svg" xmlns:xlink="http://www.w3.org/1999/xlink" width="1920" zoomAndPan="magnify" viewBox="0 0 1440 809.999993" height="1080" preserveAspectRatio="xMidYMid meet" version="1.0"><defs><g/><clipPath id="2b35947e42"><path d="M 0 0 L 1440 0 L 1440 614.285156 L 0 614.285156 Z M 0 0 " clip-rule="nonzero"/></clipPath><clipPath id="6710e6b9c5"><path d="M 720 -1413.507812 C 160.039062 -1413.507812 -293.898438 -959.570312 -293.898438 -399.609375 C -293.898438 160.347656 160.039062 614.285156 720 614.285156 C 1279.960938 614.285156 1733.898438 160.347656 1733.898438 -399.609375 C 1733.898438 -959.570312 1279.960938 -1413.507812 720 -1413.507812 " clip-rule="nonzero"/></clipPath><clipPath id="f08aa4092c"><path d="M 495.140625 153 L 945.140625 153 L 945.140625 677.984375 L 495.140625 677.984375 Z M 495.140625 153 " clip-rule="nonzero"/></clipPath><clipPath id="22fe9f9d9a"><path d="M 796.964844 421.335938 L 802.921875 349.921875 L 637.359375 349.921875 L 643.316406 421.335938 C 643.921875 428.5625 650.074219 434.21875 657.332031 434.21875 L 782.949219 434.21875 C 790.207031 434.21875 796.363281 428.5625 796.964844 421.335938 Z M 684.480469 424.671875 C 683.859375 424.792969 683.238281 424.855469 682.632812 424.855469 C 678.253906 424.855469 674.339844 421.777344 673.449219 417.324219 L 664.074219 370.492188 C 663.058594 365.417969 666.351562 360.484375 671.429688 359.46875 C 676.507812 358.464844 681.445312 361.746094 682.460938 366.816406 L 691.835938 413.648438 C 692.847656 418.722656 689.554688 423.65625 684.480469 424.671875 Z M 729.515625 415.484375 C 729.515625 420.660156 725.320312 424.851562 720.140625 424.851562 C 714.964844 424.851562 710.765625 420.660156 710.765625 415.484375 L 710.765625 368.65625 C 710.765625 363.480469 714.964844 359.289062 720.140625 359.289062 C 725.320312 359.289062 729.515625 363.480469 729.515625 368.65625 Z M 776.210938 370.492188 L 766.835938 417.324219 C 765.941406 421.777344 762.027344 424.855469 757.652344 424.855469 C 757.042969 424.855469 756.425781 424.792969 755.804688 424.671875 C 750.726562 423.65625 747.433594 418.722656 748.449219 413.648438 L 757.824219 366.816406 C 758.839844 361.746094 763.777344 358.460938 768.855469 359.46875 C 773.929688 360.484375 777.222656 365.417969 776.210938 370.492188 Z M 675.863281 293.722656 L 655.667969 293.722656 L 675.007812 245.421875 C 675.9375 243.097656 677.71875 241.277344 680.019531 240.292969 C 682.320312 239.308594 684.867188 239.273438 687.195312 240.203125 C 689.519531 241.132812 691.34375 242.910156 692.328125 245.210938 C 693.316406 247.511719 693.347656 250.058594 692.417969 252.378906 Z M 747.867188 252.378906 C 746.9375 250.058594 746.96875 247.511719 747.953125 245.210938 C 748.941406 242.910156 750.765625 241.132812 753.089844 240.203125 C 755.414062 239.277344 757.964844 239.308594 760.265625 240.292969 C 762.566406 241.277344 764.34375 243.097656 765.277344 245.421875 L 784.613281 293.722656 L 764.417969 293.722656 Z M 804.515625 331.1875 L 635.765625 331.1875 C 630.597656 331.1875 626.390625 326.988281 626.390625 321.824219 C 626.390625 316.65625 630.597656 312.457031 635.765625 312.457031 L 804.515625 312.457031 C 809.683594 312.457031 813.890625 316.65625 813.890625 321.824219 C 813.890625 326.988281 809.683594 331.1875 804.515625 331.1875 Z M 945.140625 640.28125 C 945.140625 640.398438 941.550781 652.71875 884.03125 664.210938 C 840.351562 672.9375 782.144531 677.746094 720.140625 677.746094 C 658.136719 677.746094 599.929688 672.9375 556.25 664.210938 C 498.730469 652.71875 495.140625 640.398438 495.140625 640.28125 C 495.140625 640.164062 498.730469 627.84375 556.25 616.351562 C 585.402344 610.523438 621.039062 606.457031 659.945312 604.386719 C 688.539062 638.890625 710.648438 662.589844 713.300781 665.417969 C 715.074219 667.308594 717.550781 668.378906 720.140625 668.378906 C 722.730469 668.378906 725.207031 667.308594 726.980469 665.417969 C 727.316406 665.0625 750.21875 640.574219 780.1875 604.390625 C 819.152344 606.449219 854.839844 610.519531 884.027344 616.351562 C 941.550781 627.84375 945.140625 640.164062 945.140625 640.28125 Z M 870.140625 340.554688 C 870.140625 257.921875 802.851562 190.691406 720.140625 190.691406 C 637.429688 190.691406 570.140625 257.921875 570.140625 340.554688 C 570.140625 423.1875 637.429688 490.417969 720.140625 490.417969 C 802.851562 490.417969 870.140625 423.1875 870.140625 340.554688 Z M 624.632812 422.890625 L 618.019531 343.601562 C 611.691406 338.445312 607.640625 330.597656 607.640625 321.824219 C 607.640625 306.425781 620.097656 293.890625 635.472656 293.730469 L 657.597656 238.464844 C 660.386719 231.496094 665.726562 226.027344 672.632812 223.074219 C 679.539062 220.117188 687.183594 220.023438 694.15625 222.8125 C 701.132812 225.597656 706.605469 230.933594 709.5625 237.832031 C 712.523438 244.730469 712.617188 252.367188 709.824219 259.335938 L 696.058594 293.722656 L 744.226562 293.722656 L 730.457031 259.335938 C 727.667969 252.367188 727.761719 244.730469 730.722656 237.832031 C 733.679688 230.933594 739.152344 225.597656 746.125 222.8125 C 753.101562 220.023438 760.746094 220.117188 767.648438 223.074219 C 774.554688 226.03125 779.894531 231.496094 782.683594 238.464844 L 804.8125 293.730469 C 820.183594 293.890625 832.640625 306.425781 832.640625 321.824219 C 832.640625 330.597656 828.589844 338.445312 822.261719 343.601562 L 815.648438 422.894531 C 814.242188 439.75 799.878906 452.953125 782.949219 452.953125 L 657.332031 452.953125 C 640.402344 452.953125 626.039062 439.75 624.632812 422.890625 Z M 720.136719 645.148438 C 754.628906 607.089844 907.640625 433.023438 907.640625 340.554688 C 907.640625 237.261719 823.527344 153.226562 720.140625 153.226562 C 616.753906 153.226562 532.640625 237.261719 532.640625 340.554688 C 532.640625 382.917969 566.003906 450.082031 629.121094 534.789062 C 666.828125 585.394531 704.957031 628.421875 720.136719 645.148438 Z M 551.390625 340.554688 C 551.390625 247.589844 627.09375 171.960938 720.140625 171.960938 C 813.191406 171.960938 888.890625 247.589844 888.890625 340.554688 C 888.890625 433.519531 813.191406 509.148438 720.140625 509.148438 C 627.09375 509.148438 551.390625 433.519531 551.390625 340.554688 Z M 551.390625 340.554688 " clip-rule="nonzero"/></clipPath><linearGradient x1="71.614993" gradientTransform="matrix(1.171875, 0, 0, 1.170798, 420.141143, 115.761919)" y1="487.614999" x2="487.614996" gradientUnits="userSpaceOnUse" y2="71.615024" id="7b9ea0bbd4"><stop stop-opacity="1" stop-color="rgb(36.898804%, 73.699951%, 89.7995%)" offset="0"/><stop stop-opacity="1" stop-color="rgb(36.898804%, 73.699951%, 89.7995%)" offset="0.03125"/><stop stop-opacity="1" stop-color="rgb(36.952209%, 73.657227%, 89.7995%)" offset="0.0390625"/><stop stop-opacity="1" stop-color="rgb(37.31842%, 73.374939%, 89.804077%)" offset="0.0429688"/><stop stop-opacity="1" stop-color="rgb(37.631226%, 73.135376%, 89.807129%)" offset="0.046875"/><stop stop-opacity="1" stop-color="rgb(37.942505%, 72.894287%, 89.810181%)" offset="0.0507812"/><stop stop-opacity="1" stop-color="rgb(38.253784%, 72.654724%, 89.814758%)" offset="0.0546875"/><stop stop-opacity="1" stop-color="rgb(38.565063%, 72.413635%, 89.81781%)" offset="0.0585938"/><stop stop-opacity="1" stop-color="rgb(38.877869%, 72.174072%, 89.822388%)" offset="0.0625"/><stop stop-opacity="1" stop-color="rgb(39.189148%, 71.932983%, 89.825439%)" offset="0.0664062"/><stop stop-opacity="1" stop-color="rgb(39.501953%, 71.69342%, 89.830017%)" offset="0.0703125"/><stop stop-opacity="1" stop-color="rgb(39.813232%, 71.452332%, 89.833069%)" offset="0.0742188"/><stop stop-opacity="1" stop-color="rgb(40.124512%, 71.212769%, 89.836121%)" offset="0.078125"/><stop stop-opacity="1" stop-color="rgb(40.435791%, 70.97168%, 89.839172%)" offset="0.0820312"/><stop stop-opacity="1" stop-color="rgb(40.748596%, 70.732117%, 89.84375%)" offset="0.0859375"/><stop stop-opacity="1" stop-color="rgb(41.059875%, 70.491028%, 89.846802%)" offset="0.0898438"/><stop stop-opacity="1" stop-color="rgb(41.371155%, 70.251465%, 89.851379%)" offset="0.09375"/><stop stop-opacity="1" stop-color="rgb(41.682434%, 70.010376%, 89.854431%)" offset="0.0976562"/><stop stop-opacity="1" stop-color="rgb(41.995239%, 69.769287%, 89.859009%)" offset="0.101562"/><stop stop-opacity="1" stop-color="rgb(42.306519%, 69.528198%, 89.862061%)" offset="0.105469"/><stop stop-opacity="1" stop-color="rgb(42.619324%, 69.288635%, 89.865112%)" offset="0.109375"/><stop stop-opacity="1" stop-color="rgb(42.930603%, 69.047546%, 89.868164%)" offset="0.113281"/><stop stop-opacity="1" stop-color="rgb(43.241882%, 68.807983%, 89.872742%)" offset="0.117188"/><stop stop-opacity="1" stop-color="rgb(43.553162%, 68.566895%, 89.875793%)" offset="0.121094"/><stop stop-opacity="1" stop-color="rgb(43.865967%, 68.327332%, 89.880371%)" offset="0.125"/><stop stop-opacity="1" stop-color="rgb(44.177246%, 68.086243%, 89.883423%)" offset="0.128906"/><stop stop-opacity="1" stop-color="rgb(44.490051%, 67.84668%, 89.888%)" offset="0.132813"/><stop stop-opacity="1" stop-color="rgb(44.801331%, 67.605591%, 89.891052%)" offset="0.136719"/><stop stop-opacity="1" stop-color="rgb(45.11261%, 67.366028%, 89.894104%)" offset="0.140625"/><stop stop-opacity="1" stop-color="rgb(45.423889%, 67.124939%, 89.897156%)" offset="0.144531"/><stop stop-opacity="1" stop-color="rgb(45.736694%, 66.885376%, 89.901733%)" offset="0.148438"/><stop stop-opacity="1" stop-color="rgb(46.047974%, 66.644287%, 89.904785%)" offset="0.152344"/><stop stop-opacity="1" stop-color="rgb(46.359253%, 66.404724%, 89.909363%)" offset="0.15625"/><stop stop-opacity="1" stop-color="rgb(46.670532%, 66.163635%, 89.912415%)" offset="0.160156"/><stop stop-opacity="1" stop-color="rgb(46.983337%, 65.924072%, 89.915466%)" offset="0.164062"/><stop stop-opacity="1" stop-color="rgb(47.294617%, 65.682983%, 89.918518%)" offset="0.167969"/><stop stop-opacity="1" stop-color="rgb(47.607422%, 65.44342%, 89.923096%)" offset="0.171875"/><stop stop-opacity="1" stop-color="rgb(47.918701%, 65.202332%, 89.926147%)" offset="0.175781"/><stop stop-opacity="1" stop-color="rgb(48.22998%, 64.962769%, 89.930725%)" offset="0.179688"/><stop stop-opacity="1" stop-color="rgb(48.54126%, 64.72168%, 89.933777%)" offset="0.183594"/><stop stop-opacity="1" stop-color="rgb(48.854065%, 64.482117%, 89.938354%)" offset="0.1875"/><stop stop-opacity="1" stop-color="rgb(49.165344%, 64.241028%, 89.941406%)" offset="0.191406"/><stop stop-opacity="1" stop-color="rgb(49.476624%, 64.001465%, 89.944458%)" offset="0.195312"/><stop stop-opacity="1" stop-color="rgb(49.787903%, 63.760376%, 89.94751%)" offset="0.199219"/><stop stop-opacity="1" stop-color="rgb(50.100708%, 63.520813%, 89.952087%)" offset="0.203125"/><stop stop-opacity="1" stop-color="rgb(50.411987%, 63.279724%, 89.955139%)" offset="0.207031"/><stop stop-opacity="1" stop-color="rgb(50.724792%, 63.040161%, 89.959717%)" offset="0.210937"/><stop stop-opacity="1" stop-color="rgb(51.036072%, 62.799072%, 89.962769%)" offset="0.214844"/><stop stop-opacity="1" stop-color="rgb(51.347351%, 62.559509%, 89.967346%)" offset="0.21875"/><stop stop-opacity="1" stop-color="rgb(51.65863%, 62.31842%, 89.970398%)" offset="0.222656"/><stop stop-opacity="1" stop-color="rgb(51.971436%, 62.078857%, 89.97345%)" offset="0.226562"/><stop stop-opacity="1" stop-color="rgb(52.282715%, 61.837769%, 89.976501%)" offset="0.230469"/><stop stop-opacity="1" stop-color="rgb(52.59552%, 61.598206%, 89.981079%)" offset="0.234375"/><stop stop-opacity="1" stop-color="rgb(52.906799%, 61.357117%, 89.984131%)" offset="0.238281"/><stop stop-opacity="1" stop-color="rgb(53.218079%, 61.117554%, 89.988708%)" offset="0.242188"/><stop stop-opacity="1" stop-color="rgb(53.529358%, 60.876465%, 89.99176%)" offset="0.246094"/><stop stop-opacity="1" stop-color="rgb(53.842163%, 60.636902%, 89.996338%)" offset="0.25"/><stop stop-opacity="1" stop-color="rgb(54.153442%, 60.395813%, 89.99939%)" offset="0.253906"/><stop stop-opacity="1" stop-color="rgb(54.464722%, 60.15625%, 90.002441%)" offset="0.257812"/><stop stop-opacity="1" stop-color="rgb(54.776001%, 59.915161%, 90.005493%)" offset="0.261719"/><stop stop-opacity="1" stop-color="rgb(55.088806%, 59.674072%, 90.010071%)" offset="0.265625"/><stop stop-opacity="1" stop-color="rgb(55.400085%, 59.432983%, 90.013123%)" offset="0.269531"/><stop stop-opacity="1" stop-color="rgb(55.712891%, 59.19342%, 90.0177%)" offset="0.273438"/><stop stop-opacity="1" stop-color="rgb(56.02417%, 58.952332%, 90.020752%)" offset="0.277344"/><stop stop-opacity="1" stop-color="rgb(56.335449%, 58.712769%, 90.02533%)" offset="0.28125"/><stop stop-opacity="1" stop-color="rgb(56.646729%, 58.47168%, 90.028381%)" offset="0.285156"/><stop stop-opacity="1" stop-color="rgb(56.959534%, 58.232117%, 90.031433%)" offset="0.289062"/><stop stop-opacity="1" stop-color="rgb(57.270813%, 57.991028%, 90.034485%)" offset="0.292969"/><stop stop-opacity="1" stop-color="rgb(57.582092%, 57.751465%, 90.039062%)" offset="0.296875"/><stop stop-opacity="1" stop-color="rgb(57.893372%, 57.510376%, 90.042114%)" offset="0.300781"/><stop stop-opacity="1" stop-color="rgb(58.206177%, 57.270813%, 90.046692%)" offset="0.304687"/><stop stop-opacity="1" stop-color="rgb(58.517456%, 57.029724%, 90.049744%)" offset="0.308594"/><stop stop-opacity="1" stop-color="rgb(58.830261%, 56.790161%, 90.052795%)" offset="0.3125"/><stop stop-opacity="1" stop-color="rgb(59.141541%, 56.549072%, 90.055847%)" offset="0.316406"/><stop stop-opacity="1" stop-color="rgb(59.45282%, 56.309509%, 90.060425%)" offset="0.320312"/><stop stop-opacity="1" stop-color="rgb(59.764099%, 56.06842%, 90.063477%)" offset="0.324219"/><stop stop-opacity="1" stop-color="rgb(60.076904%, 55.828857%, 90.068054%)" offset="0.328125"/><stop stop-opacity="1" stop-color="rgb(60.388184%, 55.587769%, 90.071106%)" offset="0.332031"/><stop stop-opacity="1" stop-color="rgb(60.700989%, 55.348206%, 90.075684%)" offset="0.335937"/><stop stop-opacity="1" stop-color="rgb(61.012268%, 55.107117%, 90.078735%)" offset="0.339844"/><stop stop-opacity="1" stop-color="rgb(61.323547%, 54.867554%, 90.081787%)" offset="0.34375"/><stop stop-opacity="1" stop-color="rgb(61.634827%, 54.626465%, 90.084839%)" offset="0.347656"/><stop stop-opacity="1" stop-color="rgb(61.947632%, 54.386902%, 90.089417%)" offset="0.351562"/><stop stop-opacity="1" stop-color="rgb(62.258911%, 54.145813%, 90.092468%)" offset="0.355469"/><stop stop-opacity="1" stop-color="rgb(62.57019%, 53.90625%, 90.097046%)" offset="0.359375"/><stop stop-opacity="1" stop-color="rgb(62.88147%, 53.665161%, 90.100098%)" offset="0.363281"/><stop stop-opacity="1" stop-color="rgb(63.194275%, 53.425598%, 90.104675%)" offset="0.367188"/><stop stop-opacity="1" stop-color="rgb(63.505554%, 53.184509%, 90.107727%)" offset="0.371094"/><stop stop-opacity="1" stop-color="rgb(63.818359%, 52.944946%, 90.110779%)" offset="0.375"/><stop stop-opacity="1" stop-color="rgb(64.129639%, 52.703857%, 90.113831%)" offset="0.378906"/><stop stop-opacity="1" stop-color="rgb(64.440918%, 52.464294%, 90.118408%)" offset="0.382812"/><stop stop-opacity="1" stop-color="rgb(64.752197%, 52.223206%, 90.12146%)" offset="0.386719"/><stop stop-opacity="1" stop-color="rgb(65.065002%, 51.983643%, 90.126038%)" offset="0.390625"/><stop stop-opacity="1" stop-color="rgb(65.376282%, 51.742554%, 90.129089%)" offset="0.394531"/><stop stop-opacity="1" stop-color="rgb(65.687561%, 51.502991%, 90.133667%)" offset="0.398438"/><stop stop-opacity="1" stop-color="rgb(65.99884%, 51.261902%, 90.136719%)" offset="0.402344"/><stop stop-opacity="1" stop-color="rgb(66.311646%, 51.022339%, 90.139771%)" offset="0.40625"/><stop stop-opacity="1" stop-color="rgb(66.622925%, 50.78125%, 90.142822%)" offset="0.410156"/><stop stop-opacity="1" stop-color="rgb(66.93573%, 50.541687%, 90.1474%)" offset="0.414062"/><stop stop-opacity="1" stop-color="rgb(67.247009%, 50.300598%, 90.150452%)" offset="0.417969"/><stop stop-opacity="1" stop-color="rgb(67.558289%, 50.061035%, 90.155029%)" offset="0.421875"/><stop stop-opacity="1" stop-color="rgb(67.869568%, 49.819946%, 90.158081%)" offset="0.425781"/><stop stop-opacity="1" stop-color="rgb(68.182373%, 49.580383%, 90.162659%)" offset="0.429688"/><stop stop-opacity="1" stop-color="rgb(68.493652%, 49.339294%, 90.16571%)" offset="0.433594"/><stop stop-opacity="1" stop-color="rgb(68.804932%, 49.098206%, 90.168762%)" offset="0.4375"/><stop stop-opacity="1" stop-color="rgb(69.116211%, 48.857117%, 90.171814%)" offset="0.441406"/><stop stop-opacity="1" stop-color="rgb(69.429016%, 48.617554%, 90.176392%)" offset="0.445312"/><stop stop-opacity="1" stop-color="rgb(69.740295%, 48.376465%, 90.179443%)" offset="0.449219"/><stop stop-opacity="1" stop-color="rgb(70.053101%, 48.136902%, 90.184021%)" offset="0.453125"/><stop stop-opacity="1" stop-color="rgb(70.36438%, 47.895813%, 90.187073%)" offset="0.457031"/><stop stop-opacity="1" stop-color="rgb(70.675659%, 47.65625%, 90.190125%)" offset="0.460938"/><stop stop-opacity="1" stop-color="rgb(70.986938%, 47.415161%, 90.193176%)" offset="0.464844"/><stop stop-opacity="1" stop-color="rgb(71.299744%, 47.175598%, 90.197754%)" offset="0.46875"/><stop stop-opacity="1" stop-color="rgb(71.498108%, 47.038269%, 89.746094%)" offset="0.472656"/><stop stop-opacity="1" stop-color="rgb(71.697998%, 46.90094%, 89.294434%)" offset="0.476562"/><stop stop-opacity="1" stop-color="rgb(71.875%, 46.783447%, 88.755798%)" offset="0.480469"/><stop stop-opacity="1" stop-color="rgb(72.052002%, 46.665955%, 88.217163%)" offset="0.484375"/><stop stop-opacity="1" stop-color="rgb(72.229004%, 46.548462%, 87.678528%)" offset="0.488281"/><stop stop-opacity="1" stop-color="rgb(72.407532%, 46.430969%, 87.141418%)" offset="0.492188"/><stop stop-opacity="1" stop-color="rgb(72.584534%, 46.313477%, 86.602783%)" offset="0.496094"/><stop stop-opacity="1" stop-color="rgb(72.761536%, 46.195984%, 86.064148%)" offset="0.5"/><stop stop-opacity="1" stop-color="rgb(72.938538%, 46.078491%, 85.525513%)" offset="0.503906"/><stop stop-opacity="1" stop-color="rgb(73.117065%, 45.960999%, 84.988403%)" offset="0.507812"/><stop stop-opacity="1" stop-color="rgb(73.294067%, 45.843506%, 84.449768%)" offset="0.511719"/><stop stop-opacity="1" stop-color="rgb(73.471069%, 45.726013%, 83.911133%)" offset="0.515625"/><stop stop-opacity="1" stop-color="rgb(73.648071%, 45.608521%, 83.372498%)" offset="0.519531"/><stop stop-opacity="1" stop-color="rgb(73.826599%, 45.491028%, 82.833862%)" offset="0.523438"/><stop stop-opacity="1" stop-color="rgb(74.003601%, 45.373535%, 82.295227%)" offset="0.527344"/><stop stop-opacity="1" stop-color="rgb(74.180603%, 45.256042%, 81.758118%)" offset="0.53125"/><stop stop-opacity="1" stop-color="rgb(74.357605%, 45.13855%, 81.219482%)" offset="0.535156"/><stop stop-opacity="1" stop-color="rgb(74.536133%, 45.021057%, 80.680847%)" offset="0.539063"/><stop stop-opacity="1" stop-color="rgb(74.713135%, 44.903564%, 80.142212%)" offset="0.542969"/><stop stop-opacity="1" stop-color="rgb(74.890137%, 44.786072%, 79.603577%)" offset="0.546875"/><stop stop-opacity="1" stop-color="rgb(75.067139%, 44.667053%, 79.064941%)" offset="0.550781"/><stop stop-opacity="1" stop-color="rgb(75.245667%, 44.549561%, 78.527832%)" offset="0.554688"/><stop stop-opacity="1" stop-color="rgb(75.422668%, 44.432068%, 77.989197%)" offset="0.558594"/><stop stop-opacity="1" stop-color="rgb(75.59967%, 44.314575%, 77.450562%)" offset="0.5625"/><stop stop-opacity="1" stop-color="rgb(75.776672%, 44.197083%, 76.911926%)" offset="0.566406"/><stop stop-opacity="1" stop-color="rgb(75.9552%, 44.07959%, 76.374817%)" offset="0.570313"/><stop stop-opacity="1" stop-color="rgb(76.132202%, 43.962097%, 75.836182%)" offset="0.574219"/><stop stop-opacity="1" stop-color="rgb(76.309204%, 43.844604%, 75.297546%)" offset="0.578125"/><stop stop-opacity="1" stop-color="rgb(76.486206%, 43.727112%, 74.758911%)" offset="0.582031"/><stop stop-opacity="1" stop-color="rgb(76.664734%, 43.609619%, 74.220276%)" offset="0.585938"/><stop stop-opacity="1" stop-color="rgb(76.841736%, 43.492126%, 73.681641%)" offset="0.589844"/><stop stop-opacity="1" stop-color="rgb(77.018738%, 43.374634%, 73.144531%)" offset="0.59375"/><stop stop-opacity="1" stop-color="rgb(77.19574%, 43.257141%, 72.605896%)" offset="0.597656"/><stop stop-opacity="1" stop-color="rgb(77.374268%, 43.139648%, 72.067261%)" offset="0.601563"/><stop stop-opacity="1" stop-color="rgb(77.55127%, 43.022156%, 71.528625%)" offset="0.605469"/><stop stop-opacity="1" stop-color="rgb(77.728271%, 42.904663%, 70.98999%)" offset="0.609375"/><stop stop-opacity="1" stop-color="rgb(77.905273%, 42.78717%, 70.451355%)" offset="0.613281"/><stop stop-opacity="1" stop-color="rgb(78.083801%, 42.669678%, 69.914246%)" offset="0.617188"/><stop stop-opacity="1" stop-color="rgb(78.260803%, 42.552185%, 69.37561%)" offset="0.621094"/><stop stop-opacity="1" stop-color="rgb(78.437805%, 42.434692%, 68.836975%)" offset="0.625"/><stop stop-opacity="1" stop-color="rgb(78.614807%, 42.315674%, 68.29834%)" offset="0.628906"/><stop stop-opacity="1" stop-color="rgb(78.793335%, 42.198181%, 67.76123%)" offset="0.632813"/><stop stop-opacity="1" stop-color="rgb(78.970337%, 42.080688%, 67.222595%)" offset="0.636719"/><stop stop-opacity="1" stop-color="rgb(79.147339%, 41.963196%, 66.68396%)" offset="0.640625"/><stop stop-opacity="1" stop-color="rgb(79.324341%, 41.845703%, 66.145325%)" offset="0.644531"/><stop stop-opacity="1" stop-color="rgb(79.502869%, 41.72821%, 65.606689%)" offset="0.648438"/><stop stop-opacity="1" stop-color="rgb(79.679871%, 41.610718%, 65.068054%)" offset="0.652344"/><stop stop-opacity="1" stop-color="rgb(79.856873%, 41.493225%, 64.530945%)" offset="0.65625"/><stop stop-opacity="1" stop-color="rgb(80.033875%, 41.375732%, 63.99231%)" offset="0.660156"/><stop stop-opacity="1" stop-color="rgb(80.212402%, 41.25824%, 63.453674%)" offset="0.664062"/><stop stop-opacity="1" stop-color="rgb(80.389404%, 41.140747%, 62.915039%)" offset="0.667969"/><stop stop-opacity="1" stop-color="rgb(80.566406%, 41.023254%, 62.376404%)" offset="0.671875"/><stop stop-opacity="1" stop-color="rgb(80.743408%, 40.905762%, 61.837769%)" offset="0.675781"/><stop stop-opacity="1" stop-color="rgb(80.921936%, 40.788269%, 61.300659%)" offset="0.679688"/><stop stop-opacity="1" stop-color="rgb(81.098938%, 40.670776%, 60.762024%)" offset="0.683594"/><stop stop-opacity="1" stop-color="rgb(81.27594%, 40.553284%, 60.223389%)" offset="0.6875"/><stop stop-opacity="1" stop-color="rgb(81.452942%, 40.435791%, 59.684753%)" offset="0.691406"/><stop stop-opacity="1" stop-color="rgb(81.63147%, 40.318298%, 59.147644%)" offset="0.695312"/><stop stop-opacity="1" stop-color="rgb(81.808472%, 40.200806%, 58.609009%)" offset="0.699219"/><stop stop-opacity="1" stop-color="rgb(81.985474%, 40.083313%, 58.070374%)" offset="0.703125"/><stop stop-opacity="1" stop-color="rgb(82.162476%, 39.964294%, 57.531738%)" offset="0.707031"/><stop stop-opacity="1" stop-color="rgb(82.341003%, 39.846802%, 56.993103%)" offset="0.710937"/><stop stop-opacity="1" stop-color="rgb(82.518005%, 39.729309%, 56.454468%)" offset="0.714844"/><stop stop-opacity="1" stop-color="rgb(82.695007%, 39.611816%, 55.917358%)" offset="0.71875"/><stop stop-opacity="1" stop-color="rgb(82.872009%, 39.494324%, 55.378723%)" offset="0.722656"/><stop stop-opacity="1" stop-color="rgb(83.050537%, 39.376831%, 54.840088%)" offset="0.726562"/><stop stop-opacity="1" stop-color="rgb(83.227539%, 39.259338%, 54.301453%)" offset="0.730469"/><stop stop-opacity="1" stop-color="rgb(83.404541%, 39.141846%, 53.762817%)" offset="0.734375"/><stop stop-opacity="1" stop-color="rgb(83.581543%, 39.024353%, 53.224182%)" offset="0.738281"/><stop stop-opacity="1" stop-color="rgb(83.760071%, 38.90686%, 52.687073%)" offset="0.742187"/><stop stop-opacity="1" stop-color="rgb(83.937073%, 38.789368%, 52.148438%)" offset="0.746094"/><stop stop-opacity="1" stop-color="rgb(84.114075%, 38.671875%, 51.609802%)" offset="0.75"/><stop stop-opacity="1" stop-color="rgb(84.291077%, 38.554382%, 51.071167%)" offset="0.753906"/><stop stop-opacity="1" stop-color="rgb(84.469604%, 38.43689%, 50.534058%)" offset="0.757812"/><stop stop-opacity="1" stop-color="rgb(84.646606%, 38.319397%, 49.995422%)" offset="0.761719"/><stop stop-opacity="1" stop-color="rgb(84.823608%, 38.201904%, 49.456787%)" offset="0.765625"/><stop stop-opacity="1" stop-color="rgb(85.00061%, 38.084412%, 48.918152%)" offset="0.769531"/><stop stop-opacity="1" stop-color="rgb(85.179138%, 37.966919%, 48.379517%)" offset="0.773437"/><stop stop-opacity="1" stop-color="rgb(85.35614%, 37.8479%, 47.840881%)" offset="0.777344"/><stop stop-opacity="1" stop-color="rgb(85.533142%, 37.730408%, 47.303772%)" offset="0.78125"/><stop stop-opacity="1" stop-color="rgb(85.710144%, 37.612915%, 46.765137%)" offset="0.785156"/><stop stop-opacity="1" stop-color="rgb(85.888672%, 37.495422%, 46.226501%)" offset="0.789062"/><stop stop-opacity="1" stop-color="rgb(86.065674%, 37.37793%, 45.687866%)" offset="0.792969"/><stop stop-opacity="1" stop-color="rgb(86.242676%, 37.260437%, 45.149231%)" offset="0.796875"/><stop stop-opacity="1" stop-color="rgb(86.419678%, 37.142944%, 44.610596%)" offset="0.800781"/><stop stop-opacity="1" stop-color="rgb(86.598206%, 37.025452%, 44.073486%)" offset="0.804687"/><stop stop-opacity="1" stop-color="rgb(86.775208%, 36.907959%, 43.534851%)" offset="0.808594"/><stop stop-opacity="1" stop-color="rgb(86.952209%, 36.790466%, 42.996216%)" offset="0.8125"/><stop stop-opacity="1" stop-color="rgb(87.129211%, 36.672974%, 42.457581%)" offset="0.816406"/><stop stop-opacity="1" stop-color="rgb(87.307739%, 36.555481%, 41.920471%)" offset="0.820312"/><stop stop-opacity="1" stop-color="rgb(87.484741%, 36.437988%, 41.381836%)" offset="0.824219"/><stop stop-opacity="1" stop-color="rgb(87.661743%, 36.320496%, 40.843201%)" offset="0.828125"/><stop stop-opacity="1" stop-color="rgb(87.838745%, 36.203003%, 40.304565%)" offset="0.832031"/><stop stop-opacity="1" stop-color="rgb(88.017273%, 36.08551%, 39.76593%)" offset="0.835937"/><stop stop-opacity="1" stop-color="rgb(88.194275%, 35.968018%, 39.227295%)" offset="0.839844"/><stop stop-opacity="1" stop-color="rgb(88.371277%, 35.850525%, 38.690186%)" offset="0.84375"/><stop stop-opacity="1" stop-color="rgb(88.484192%, 35.774231%, 38.343811%)" offset="0.847656"/><stop stop-opacity="1" stop-color="rgb(88.598633%, 35.699463%, 37.998962%)" offset="0.851562"/><stop stop-opacity="1" stop-color="rgb(88.598633%, 35.699463%, 37.998962%)" offset="0.859375"/><stop stop-opacity="1" stop-color="rgb(88.598633%, 35.699463%, 37.998962%)" offset="0.875"/><stop stop-opacity="1" stop-color="rgb(88.598633%, 35.699463%, 37.998962%)" offset="1"/></linearGradient></defs><rect x="-144" width="1728" fill="#ffffff" y="-80.999999" height="971.999992" fill-opacity="1"/><rect x="-144" width="1728" fill="#ffffff" y="-80.999999" height="971.999992" fill-opacity="1"/><rect x="-144" width="1728" fill="#000000" y="-80.999999" height="971.999992" fill-opacity="1"/><g clip-path="url(#2b35947e42)"><g clip-path="url(#6710e6b9c5)"><path fill="#ffffff" d="M -293.898438 -1413.507812 L 1733.898438 -1413.507812 L 1733.898438 614.285156 L -293.898438 614.285156 Z M -293.898438 -1413.507812 " fill-opacity="1" fill-rule="nonzero"/></g></g><g clip-path="url(#f08aa4092c)"><g clip-path="url(#22fe9f9d9a)"><path fill="url(#7b9ea0bbd4)" d="M 495.140625 153.226562 L 495.140625 677.746094 L 945.140625 677.746094 L 945.140625 153.226562 Z M 495.140625 153.226562 " fill-rule="nonzero"/></g></g><g fill="#ffffff" fill-opacity="1"><g transform="translate(258.374992, 750.749982)"><g><path d="M 30.46875 -12.140625 C 30.46875 -9.660156 29.835938 -7.457031 28.578125 -5.53125 C 27.316406 -3.613281 25.5 -2.117188 23.125 -1.046875 C 20.757812 0.015625 17.984375 0.546875 14.796875 0.546875 C 12.128906 0.546875 9.894531 0.359375 8.09375 -0.015625 C 6.289062 -0.390625 4.414062 -1.039062 2.46875 -1.96875 L 2.46875 -11.59375 C 4.519531 -10.539062 6.65625 -9.71875 8.875 -9.125 C 11.101562 -8.53125 13.148438 -8.234375 15.015625 -8.234375 C 16.617188 -8.234375 17.789062 -8.507812 18.53125 -9.0625 C 19.28125 -9.625 19.65625 -10.34375 19.65625 -11.21875 C 19.65625 -11.757812 19.503906 -12.234375 19.203125 -12.640625 C 18.910156 -13.054688 18.429688 -13.472656 17.765625 -13.890625 C 17.097656 -14.304688 15.320312 -15.164062 12.4375 -16.46875 C 9.832031 -17.644531 7.878906 -18.789062 6.578125 -19.90625 C 5.273438 -21.019531 4.304688 -22.296875 3.671875 -23.734375 C 3.046875 -25.171875 2.734375 -26.875 2.734375 -28.84375 C 2.734375 -32.53125 4.070312 -35.398438 6.75 -37.453125 C 9.4375 -39.515625 13.117188 -40.546875 17.796875 -40.546875 C 21.941406 -40.546875 26.164062 -39.59375 30.46875 -37.6875 L 27.15625 -29.34375 C 23.414062 -31.050781 20.1875 -31.90625 17.46875 -31.90625 C 16.070312 -31.90625 15.050781 -31.660156 14.40625 -31.171875 C 13.769531 -30.679688 13.453125 -30.070312 13.453125 -29.34375 C 13.453125 -28.5625 13.859375 -27.859375 14.671875 -27.234375 C 15.484375 -26.617188 17.6875 -25.488281 21.28125 -23.84375 C 24.71875 -22.289062 27.109375 -20.625 28.453125 -18.84375 C 29.796875 -17.070312 30.46875 -14.835938 30.46875 -12.140625 Z M 30.46875 -12.140625 "/></g></g></g><g fill="#ffffff" fill-opacity="1"><g transform="translate(290.690794, 750.749982)"><g><path d="M 38.3125 -39.984375 L 38.3125 -15.921875 C 38.3125 -10.679688 36.828125 -6.625 33.859375 -3.75 C 30.898438 -0.882812 26.632812 0.546875 21.0625 0.546875 C 15.601562 0.546875 11.410156 -0.847656 8.484375 -3.640625 C 5.566406 -6.429688 4.109375 -10.441406 4.109375 -15.671875 L 4.109375 -39.984375 L 14.953125 -39.984375 L 14.953125 -16.515625 C 14.953125 -13.691406 15.476562 -11.640625 16.53125 -10.359375 C 17.59375 -9.085938 19.15625 -8.453125 21.21875 -8.453125 C 23.425781 -8.453125 25.023438 -9.082031 26.015625 -10.34375 C 27.015625 -11.613281 27.515625 -13.691406 27.515625 -16.578125 L 27.515625 -39.984375 Z M 38.3125 -39.984375 "/></g></g></g><g fill="#ffffff" fill-opacity="1"><g transform="translate(333.067692, 750.749982)"><g><path d="M 33.328125 -27.265625 C 33.328125 -22.796875 32.007812 -19.34375 29.375 -16.90625 C 26.75 -14.476562 23.007812 -13.265625 18.15625 -13.265625 L 15.125 -13.265625 L 15.125 0 L 4.328125 0 L 4.328125 -39.984375 L 18.15625 -39.984375 C 23.207031 -39.984375 27 -38.878906 29.53125 -36.671875 C 32.0625 -34.460938 33.328125 -31.328125 33.328125 -27.265625 Z M 15.125 -22.0625 L 17.09375 -22.0625 C 18.71875 -22.0625 20.003906 -22.515625 20.953125 -23.421875 C 21.910156 -24.335938 22.390625 -25.597656 22.390625 -27.203125 C 22.390625 -29.898438 20.894531 -31.25 17.90625 -31.25 L 15.125 -31.25 Z M 15.125 -22.0625 "/></g></g></g><g fill="#ffffff" fill-opacity="1"><g transform="translate(368.445567, 750.749982)"><g><path d="M 28.0625 0 L 4.328125 0 L 4.328125 -39.984375 L 28.0625 -39.984375 L 28.0625 -31.3125 L 15.125 -31.3125 L 15.125 -25.015625 L 27.09375 -25.015625 L 27.09375 -16.359375 L 15.125 -16.359375 L 15.125 -8.8125 L 28.0625 -8.8125 Z M 28.0625 0 "/></g></g></g><g fill="#ffffff" fill-opacity="1"><g transform="translate(399.175652, 750.749982)"><g><path d="M 15.125 -14.546875 L 15.125 0 L 4.328125 0 L 4.328125 -39.984375 L 17.421875 -39.984375 C 28.285156 -39.984375 33.71875 -36.046875 33.71875 -28.171875 C 33.71875 -23.535156 31.457031 -19.953125 26.9375 -17.421875 L 38.578125 0 L 26.328125 0 L 17.859375 -14.546875 Z M 15.125 -22.671875 L 17.140625 -22.671875 C 20.921875 -22.671875 22.8125 -24.335938 22.8125 -27.671875 C 22.8125 -30.421875 20.957031 -31.796875 17.25 -31.796875 L 15.125 -31.796875 Z M 15.125 -22.671875 "/></g></g></g><g fill="#ffffff" fill-opacity="1"><g transform="translate(437.068801, 750.749982)"><g><path d="M 21.734375 0 L 13.5625 -28.796875 L 13.3125 -28.796875 C 13.695312 -23.890625 13.890625 -20.078125 13.890625 -17.359375 L 13.890625 0 L 4.328125 0 L 4.328125 -39.984375 L 18.703125 -39.984375 L 27.046875 -11.59375 L 27.265625 -11.59375 L 35.4375 -39.984375 L 49.84375 -39.984375 L 49.84375 0 L 39.921875 0 L 39.921875 -17.53125 C 39.921875 -18.4375 39.929688 -19.445312 39.953125 -20.5625 C 39.984375 -21.675781 40.109375 -24.398438 40.328125 -28.734375 L 40.09375 -28.734375 L 32.015625 0 Z M 21.734375 0 "/></g></g></g><g fill="#ffffff" fill-opacity="1"><g transform="translate(491.20187, 750.749982)"><g><path d="M 28.84375 0 L 26.875 -7.5 L 13.890625 -7.5 L 11.875 0 L 0 0 L 13.046875 -40.140625 L 27.453125 -40.140625 L 40.65625 0 Z M 24.640625 -16.359375 L 22.921875 -22.921875 C 22.515625 -24.378906 22.023438 -26.265625 21.453125 -28.578125 C 20.878906 -30.890625 20.5 -32.546875 20.3125 -33.546875 C 20.15625 -32.617188 19.832031 -31.085938 19.34375 -28.953125 C 18.863281 -26.828125 17.796875 -22.628906 16.140625 -16.359375 Z M 24.640625 -16.359375 "/></g></g></g><g fill="#ffffff" fill-opacity="1"><g transform="translate(531.856363, 750.749982)"><g><path d="M 15.125 -14.546875 L 15.125 0 L 4.328125 0 L 4.328125 -39.984375 L 17.421875 -39.984375 C 28.285156 -39.984375 33.71875 -36.046875 33.71875 -28.171875 C 33.71875 -23.535156 31.457031 -19.953125 26.9375 -17.421875 L 38.578125 0 L 26.328125 0 L 17.859375 -14.546875 Z M 15.125 -22.671875 L 17.140625 -22.671875 C 20.921875 -22.671875 22.8125 -24.335938 22.8125 -27.671875 C 22.8125 -30.421875 20.957031 -31.796875 17.25 -31.796875 L 15.125 -31.796875 Z M 15.125 -22.671875 "/></g></g></g><g fill="#ffffff" fill-opacity="1"><g transform="translate(569.749511, 750.749982)"><g><path d="M 38.46875 0 L 26.28125 0 L 18.375 -15.28125 L 15.171875 -13.375 L 15.171875 0 L 4.328125 0 L 4.328125 -39.984375 L 15.171875 -39.984375 L 15.171875 -22.609375 C 15.722656 -23.691406 16.828125 -25.398438 18.484375 -27.734375 L 26.875 -39.984375 L 38.6875 -39.984375 L 26.09375 -22.0625 Z M 38.46875 0 "/></g></g></g><g fill="#ffffff" fill-opacity="1"><g transform="translate(608.216786, 750.749982)"><g><path d="M 28.0625 0 L 4.328125 0 L 4.328125 -39.984375 L 28.0625 -39.984375 L 28.0625 -31.3125 L 15.125 -31.3125 L 15.125 -25.015625 L 27.09375 -25.015625 L 27.09375 -16.359375 L 15.125 -16.359375 L 15.125 -8.8125 L 28.0625 -8.8125 Z M 28.0625 0 "/></g></g></g><g fill="#ffffff" fill-opacity="1"><g transform="translate(638.946872, 750.749982)"><g><path d="M 21.953125 0 L 11.15625 0 L 11.15625 -31.140625 L 1.390625 -31.140625 L 1.390625 -39.984375 L 31.6875 -39.984375 L 31.6875 -31.140625 L 21.953125 -31.140625 Z M 21.953125 0 "/></g></g></g><g fill="#ffffff" fill-opacity="1"><g transform="translate(672.028169, 750.749982)"><g/></g></g><g fill="#ffffff" fill-opacity="1"><g transform="translate(686.573014, 750.749982)"><g><path d="M 30.46875 -12.140625 C 30.46875 -9.660156 29.835938 -7.457031 28.578125 -5.53125 C 27.316406 -3.613281 25.5 -2.117188 23.125 -1.046875 C 20.757812 0.015625 17.984375 0.546875 14.796875 0.546875 C 12.128906 0.546875 9.894531 0.359375 8.09375 -0.015625 C 6.289062 -0.390625 4.414062 -1.039062 2.46875 -1.96875 L 2.46875 -11.59375 C 4.519531 -10.539062 6.65625 -9.71875 8.875 -9.125 C 11.101562 -8.53125 13.148438 -8.234375 15.015625 -8.234375 C 16.617188 -8.234375 17.789062 -8.507812 18.53125 -9.0625 C 19.28125 -9.625 19.65625 -10.34375 19.65625 -11.21875 C 19.65625 -11.757812 19.503906 -12.234375 19.203125 -12.640625 C 18.910156 -13.054688 18.429688 -13.472656 17.765625 -13.890625 C 17.097656 -14.304688 15.320312 -15.164062 12.4375 -16.46875 C 9.832031 -17.644531 7.878906 -18.789062 6.578125 -19.90625 C 5.273438 -21.019531 4.304688 -22.296875 3.671875 -23.734375 C 3.046875 -25.171875 2.734375 -26.875 2.734375 -28.84375 C 2.734375 -32.53125 4.070312 -35.398438 6.75 -37.453125 C 9.4375 -39.515625 13.117188 -40.546875 17.796875 -40.546875 C 21.941406 -40.546875 26.164062 -39.59375 30.46875 -37.6875 L 27.15625 -29.34375 C 23.414062 -31.050781 20.1875 -31.90625 17.46875 -31.90625 C 16.070312 -31.90625 15.050781 -31.660156 14.40625 -31.171875 C 13.769531 -30.679688 13.453125 -30.070312 13.453125 -29.34375 C 13.453125 -28.5625 13.859375 -27.859375 14.671875 -27.234375 C 15.484375 -26.617188 17.6875 -25.488281 21.28125 -23.84375 C 24.71875 -22.289062 27.109375 -20.625 28.453125 -18.84375 C 29.796875 -17.070312 30.46875 -14.835938 30.46875 -12.140625 Z M 30.46875 -12.140625 "/></g></g></g><g fill="#ffffff" fill-opacity="1"><g transform="translate(718.888793, 750.749982)"><g><path d="M 21.953125 0 L 11.15625 0 L 11.15625 -31.140625 L 1.390625 -31.140625 L 1.390625 -39.984375 L 31.6875 -39.984375 L 31.6875 -31.140625 L 21.953125 -31.140625 Z M 21.953125 0 "/></g></g></g><g fill="#ffffff" fill-opacity="1"><g transform="translate(751.97009, 750.749982)"><g><path d="M 41.734375 -20.046875 C 41.734375 -13.316406 40.082031 -8.203125 36.78125 -4.703125 C 33.476562 -1.203125 28.644531 0.546875 22.28125 0.546875 C 16.007812 0.546875 11.203125 -1.210938 7.859375 -4.734375 C 4.515625 -8.253906 2.84375 -13.375 2.84375 -20.09375 C 2.84375 -26.75 4.503906 -31.832031 7.828125 -35.34375 C 11.160156 -38.851562 16 -40.609375 22.34375 -40.609375 C 28.707031 -40.609375 33.53125 -38.863281 36.8125 -35.375 C 40.09375 -31.894531 41.734375 -26.785156 41.734375 -20.046875 Z M 14.21875 -20.046875 C 14.21875 -12.316406 16.90625 -8.453125 22.28125 -8.453125 C 25.019531 -8.453125 27.050781 -9.390625 28.375 -11.265625 C 29.695312 -13.140625 30.359375 -16.066406 30.359375 -20.046875 C 30.359375 -24.035156 29.6875 -26.984375 28.34375 -28.890625 C 27 -30.796875 25 -31.75 22.34375 -31.75 C 16.925781 -31.75 14.21875 -27.847656 14.21875 -20.046875 Z M 14.21875 -20.046875 "/></g></g></g><g fill="#ffffff" fill-opacity="1"><g transform="translate(796.588862, 750.749982)"><g><path d="M 15.125 -14.546875 L 15.125 0 L 4.328125 0 L 4.328125 -39.984375 L 17.421875 -39.984375 C 28.285156 -39.984375 33.71875 -36.046875 33.71875 -28.171875 C 33.71875 -23.535156 31.457031 -19.953125 26.9375 -17.421875 L 38.578125 0 L 26.328125 0 L 17.859375 -14.546875 Z M 15.125 -22.671875 L 17.140625 -22.671875 C 20.921875 -22.671875 22.8125 -24.335938 22.8125 -27.671875 C 22.8125 -30.421875 20.957031 -31.796875 17.25 -31.796875 L 15.125 -31.796875 Z M 15.125 -22.671875 "/></g></g></g><g fill="#ffffff" fill-opacity="1"><g transform="translate(834.481988, 750.749982)"><g><path d="M 28.84375 0 L 26.875 -7.5 L 13.890625 -7.5 L 11.875 0 L 0 0 L 13.046875 -40.140625 L 27.453125 -40.140625 L 40.65625 0 Z M 24.640625 -16.359375 L 22.921875 -22.921875 C 22.515625 -24.378906 22.023438 -26.265625 21.453125 -28.578125 C 20.878906 -30.890625 20.5 -32.546875 20.3125 -33.546875 C 20.15625 -32.617188 19.832031 -31.085938 19.34375 -28.953125 C 18.863281 -26.828125 17.796875 -22.628906 16.140625 -16.359375 Z M 24.640625 -16.359375 "/></g></g></g><g fill="#ffffff" fill-opacity="1"><g transform="translate(875.136481, 750.749982)"><g><path d="M 20.375 -23.40625 L 37.625 -23.40625 L 37.625 -1.859375 C 32.9375 -0.253906 27.785156 0.546875 22.171875 0.546875 C 16.015625 0.546875 11.253906 -1.238281 7.890625 -4.8125 C 4.523438 -8.382812 2.84375 -13.476562 2.84375 -20.09375 C 2.84375 -26.550781 4.679688 -31.570312 8.359375 -35.15625 C 12.046875 -38.75 17.207031 -40.546875 23.84375 -40.546875 C 26.363281 -40.546875 28.738281 -40.304688 30.96875 -39.828125 C 33.195312 -39.359375 35.144531 -38.757812 36.8125 -38.03125 L 33.390625 -29.5625 C 30.503906 -30.976562 27.34375 -31.6875 23.90625 -31.6875 C 20.75 -31.6875 18.304688 -30.660156 16.578125 -28.609375 C 14.859375 -26.566406 14 -23.640625 14 -19.828125 C 14 -16.085938 14.773438 -13.238281 16.328125 -11.28125 C 17.890625 -9.320312 20.140625 -8.34375 23.078125 -8.34375 C 24.679688 -8.34375 26.160156 -8.5 27.515625 -8.8125 L 27.515625 -15.0625 L 20.375 -15.0625 Z M 20.375 -23.40625 "/></g></g></g><g fill="#ffffff" fill-opacity="1"><g transform="translate(916.583821, 750.749982)"><g><path d="M 28.0625 0 L 4.328125 0 L 4.328125 -39.984375 L 28.0625 -39.984375 L 28.0625 -31.3125 L 15.125 -31.3125 L 15.125 -25.015625 L 27.09375 -25.015625 L 27.09375 -16.359375 L 15.125 -16.359375 L 15.125 -8.8125 L 28.0625 -8.8125 Z M 28.0625 0 "/></g></g></g><g fill="#ffffff" fill-opacity="1"><g transform="translate(947.313907, 750.749982)"><g/></g></g><g fill="#ffffff" fill-opacity="1"><g transform="translate(961.858752, 750.749982)"><g><path d="M 30.46875 -12.140625 C 30.46875 -9.660156 29.835938 -7.457031 28.578125 -5.53125 C 27.316406 -3.613281 25.5 -2.117188 23.125 -1.046875 C 20.757812 0.015625 17.984375 0.546875 14.796875 0.546875 C 12.128906 0.546875 9.894531 0.359375 8.09375 -0.015625 C 6.289062 -0.390625 4.414062 -1.039062 2.46875 -1.96875 L 2.46875 -11.59375 C 4.519531 -10.539062 6.65625 -9.71875 8.875 -9.125 C 11.101562 -8.53125 13.148438 -8.234375 15.015625 -8.234375 C 16.617188 -8.234375 17.789062 -8.507812 18.53125 -9.0625 C 19.28125 -9.625 19.65625 -10.34375 19.65625 -11.21875 C 19.65625 -11.757812 19.503906 -12.234375 19.203125 -12.640625 C 18.910156 -13.054688 18.429688 -13.472656 17.765625 -13.890625 C 17.097656 -14.304688 15.320312 -15.164062 12.4375 -16.46875 C 9.832031 -17.644531 7.878906 -18.789062 6.578125 -19.90625 C 5.273438 -21.019531 4.304688 -22.296875 3.671875 -23.734375 C 3.046875 -25.171875 2.734375 -26.875 2.734375 -28.84375 C 2.734375 -32.53125 4.070312 -35.398438 6.75 -37.453125 C 9.4375 -39.515625 13.117188 -40.546875 17.796875 -40.546875 C 21.941406 -40.546875 26.164062 -39.59375 30.46875 -37.6875 L 27.15625 -29.34375 C 23.414062 -31.050781 20.1875 -31.90625 17.46875 -31.90625 C 16.070312 -31.90625 15.050781 -31.660156 14.40625 -31.171875 C 13.769531 -30.679688 13.453125 -30.070312 13.453125 -29.34375 C 13.453125 -28.5625 13.859375 -27.859375 14.671875 -27.234375 C 15.484375 -26.617188 17.6875 -25.488281 21.28125 -23.84375 C 24.71875 -22.289062 27.109375 -20.625 28.453125 -18.84375 C 29.796875 -17.070312 30.46875 -14.835938 30.46875 -12.140625 Z M 30.46875 -12.140625 "/></g></g></g><g fill="#ffffff" fill-opacity="1"><g transform="translate(994.174577, 750.749982)"><g><path d="M 18.59375 -25.15625 L 25.484375 -39.984375 L 37.1875 -39.984375 L 24.03125 -15.609375 L 24.03125 0 L 13.15625 0 L 13.15625 -15.28125 L 0 -39.984375 L 11.765625 -39.984375 Z M 18.59375 -25.15625 "/></g></g></g><g fill="#ffffff" fill-opacity="1"><g transform="translate(1031.356887, 750.749982)"><g><path d="M 30.46875 -12.140625 C 30.46875 -9.660156 29.835938 -7.457031 28.578125 -5.53125 C 27.316406 -3.613281 25.5 -2.117188 23.125 -1.046875 C 20.757812 0.015625 17.984375 0.546875 14.796875 0.546875 C 12.128906 0.546875 9.894531 0.359375 8.09375 -0.015625 C 6.289062 -0.390625 4.414062 -1.039062 2.46875 -1.96875 L 2.46875 -11.59375 C 4.519531 -10.539062 6.65625 -9.71875 8.875 -9.125 C 11.101562 -8.53125 13.148438 -8.234375 15.015625 -8.234375 C 16.617188 -8.234375 17.789062 -8.507812 18.53125 -9.0625 C 19.28125 -9.625 19.65625 -10.34375 19.65625 -11.21875 C 19.65625 -11.757812 19.503906 -12.234375 19.203125 -12.640625 C 18.910156 -13.054688 18.429688 -13.472656 17.765625 -13.890625 C 17.097656 -14.304688 15.320312 -15.164062 12.4375 -16.46875 C 9.832031 -17.644531 7.878906 -18.789062 6.578125 -19.90625 C 5.273438 -21.019531 4.304688 -22.296875 3.671875 -23.734375 C 3.046875 -25.171875 2.734375 -26.875 2.734375 -28.84375 C 2.734375 -32.53125 4.070312 -35.398438 6.75 -37.453125 C 9.4375 -39.515625 13.117188 -40.546875 17.796875 -40.546875 C 21.941406 -40.546875 26.164062 -39.59375 30.46875 -37.6875 L 27.15625 -29.34375 C 23.414062 -31.050781 20.1875 -31.90625 17.46875 -31.90625 C 16.070312 -31.90625 15.050781 -31.660156 14.40625 -31.171875 C 13.769531 -30.679688 13.453125 -30.070312 13.453125 -29.34375 C 13.453125 -28.5625 13.859375 -27.859375 14.671875 -27.234375 C 15.484375 -26.617188 17.6875 -25.488281 21.28125 -23.84375 C 24.71875 -22.289062 27.109375 -20.625 28.453125 -18.84375 C 29.796875 -17.070312 30.46875 -14.835938 30.46875 -12.140625 Z M 30.46875 -12.140625 "/></g></g></g><g fill="#ffffff" fill-opacity="1"><g transform="translate(1063.672712, 750.749982)"><g><path d="M 21.953125 0 L 11.15625 0 L 11.15625 -31.140625 L 1.390625 -31.140625 L 1.390625 -39.984375 L 31.6875 -39.984375 L 31.6875 -31.140625 L 21.953125 -31.140625 Z M 21.953125 0 "/></g></g></g><g fill="#ffffff" fill-opacity="1"><g transform="translate(1096.754009, 750.749982)"><g><path d="M 28.0625 0 L 4.328125 0 L 4.328125 -39.984375 L 28.0625 -39.984375 L 28.0625 -31.3125 L 15.125 -31.3125 L 15.125 -25.015625 L 27.09375 -25.015625 L 27.09375 -16.359375 L 15.125 -16.359375 L 15.125 -8.8125 L 28.0625 -8.8125 Z M 28.0625 0 "/></g></g></g><g fill="#ffffff" fill-opacity="1"><g transform="translate(1127.484141, 750.749982)"><g><path d="M 21.734375 0 L 13.5625 -28.796875 L 13.3125 -28.796875 C 13.695312 -23.890625 13.890625 -20.078125 13.890625 -17.359375 L 13.890625 0 L 4.328125 0 L 4.328125 -39.984375 L 18.703125 -39.984375 L 27.046875 -11.59375 L 27.265625 -11.59375 L 35.4375 -39.984375 L 49.84375 -39.984375 L 49.84375 0 L 39.921875 0 L 39.921875 -17.53125 C 39.921875 -18.4375 39.929688 -19.445312 39.953125 -20.5625 C 39.984375 -21.675781 40.109375 -24.398438 40.328125 -28.734375 L 40.09375 -28.734375 L 32.015625 0 Z M 21.734375 0 "/></g></g></g></svg>